<svg width="28" height="28" viewBox="0 0 28 28" fill="none" xmlns="http://www.w3.org/2000/svg">
<path fill-rule="evenodd" clip-rule="evenodd" d="M6.97925 0.149902C10.8235 0.149902 13.9399 3.26631 13.9399 7.1106V0.149902H20.9006C24.7449 0.149902 27.8613 3.26631 27.8613 7.1106C27.8613 10.9548 24.7449 14.0713 20.9006 14.0713C24.7449 14.0713 27.8613 17.1877 27.8613 21.032C27.8613 22.9408 27.0929 24.6702 25.8486 25.9277L25.8226 25.954L25.7995 25.9769C24.5417 27.223 22.8111 27.9927 20.9006 27.9927C19.0032 27.9927 17.2831 27.2335 16.0275 26.0023C16.0112 25.9863 15.9949 25.9701 15.9787 25.954C15.9634 25.9387 15.9482 25.9234 15.9331 25.908C14.7003 24.6522 13.9399 22.9309 13.9399 21.032C13.9399 24.8762 10.8235 27.9927 6.97925 27.9927C3.13496 27.9927 0.0185547 24.8762 0.0185547 21.032V14.0713H6.97925C3.13496 14.0713 0.0185547 10.9548 0.0185547 7.1106C0.0185547 3.26631 3.13496 0.149902 6.97925 0.149902ZM12.5478 7.1106C12.5478 10.186 10.0547 12.6792 6.97925 12.6792V1.54204C10.0547 1.54204 12.5478 4.03517 12.5478 7.1106ZM26.4692 21.032C26.4692 17.9565 23.9761 15.4634 20.9006 15.4634C17.8252 15.4634 15.3321 17.9565 15.3321 21.032H26.4692ZM1.41069 15.4634V21.032C1.41069 24.1074 3.90382 26.6005 6.97925 26.6005C10.0547 26.6005 12.5478 24.1074 12.5478 21.032V15.4634H1.41069ZM15.3321 12.6792V1.54204H20.9006C23.9761 1.54204 26.4692 4.03517 26.4692 7.1106C26.4692 10.186 23.9761 12.6792 20.9006 12.6792H15.3321Z" fill="#263238"/>
</svg>
