<svg width="38" height="14" viewBox="0 0 38 14" fill="none" xmlns="http://www.w3.org/2000/svg">
<g clip-path="url(#clip0_211_2077)">
<path d="M9.53406 0.00396729C8.12053 0.00396729 6.76491 0.565487 5.7654 1.565L2.50342 4.82699C1.5039 5.8265 0.942383 7.18211 0.942383 8.59565C0.942383 11.5392 3.32857 13.9254 6.27209 13.9254C7.68563 13.9254 9.04124 13.3638 10.0408 12.3643L12.2971 10.108C12.2971 10.1079 12.2971 10.108 12.2971 10.108L18.8713 3.53378C19.3486 3.05642 19.9961 2.78825 20.6712 2.78825C21.8014 2.78825 22.7596 3.52488 23.0918 4.54423L25.1666 2.46943C24.2201 0.986975 22.5604 0.00396729 20.6712 0.00396729C19.2576 0.00396729 17.902 0.565487 16.9025 1.565L8.07199 10.3955C7.59463 10.8729 6.94719 11.1411 6.27209 11.1411C4.86628 11.1411 3.72666 10.0015 3.72666 8.59565C3.72666 7.92055 3.99484 7.27311 4.4722 6.79575L7.73416 3.53378C8.21153 3.05642 8.85897 2.78825 9.53406 2.78825C10.6643 2.78825 11.6225 3.52491 11.9547 4.54429L14.0296 2.46948C13.083 0.987003 11.4234 0.00396729 9.53406 0.00396729Z" fill="#394149"/>
<path d="M19.2092 10.3955C18.7319 10.8729 18.0844 11.1411 17.4093 11.1411C16.2792 11.1411 15.3211 10.4046 14.9888 9.38545L12.9141 11.4602C13.8606 12.9425 15.5202 13.9254 17.4093 13.9254C18.8229 13.9254 20.1785 13.3638 21.178 12.3643L30.0085 3.53378C30.4859 3.05642 31.1333 2.78825 31.8084 2.78825C33.2142 2.78825 34.3538 3.92787 34.3538 5.33368C34.3538 6.00877 34.0857 6.65621 33.6083 7.13358L30.3463 10.3955C29.869 10.8729 29.2215 11.1411 28.5464 11.1411C27.4163 11.1411 26.4581 10.4045 26.1258 9.38522L24.0511 11.46C24.9976 12.9424 26.6572 13.9254 28.5464 13.9254C29.96 13.9254 31.3156 13.3638 32.3151 12.3643L35.5771 9.10234C36.5766 8.10283 37.1381 6.74721 37.1381 5.33368C37.1381 2.39016 34.7519 0.00396729 31.8084 0.00396729C30.3949 0.00396729 29.0393 0.565487 28.0397 1.565L19.2092 10.3955Z" fill="#394149"/>
</g>
<defs>
<clipPath id="clip0_211_2077">
<rect width="36.1956" height="13.9214" fill="white" transform="translate(0.942383 0.00396729)"/>
</clipPath>
</defs>
</svg>
