<svg width="33" height="21" viewBox="0 0 33 21" fill="none" xmlns="http://www.w3.org/2000/svg">
<g clip-path="url(#clip0_211_2057)">
<path d="M30.6157 2.70099C30.6157 2.72452 30.6157 2.75394 30.6096 2.7716C30.5789 3.00108 30.5789 3.23056 30.5973 3.46593C30.6096 3.52477 30.6218 3.58361 30.6709 3.63069C30.7506 3.71895 30.8732 3.7013 30.9223 3.59538C30.9468 3.54243 30.9468 3.48947 30.9345 3.43651C30.8732 3.21291 30.8609 2.97754 30.8548 2.74806C30.8548 2.73629 30.8548 2.71864 30.8548 2.70099C30.9223 2.6951 30.9836 2.68921 31.0387 2.68921C31.0817 2.68333 31.1185 2.67745 31.1491 2.65979C31.241 2.61272 31.241 2.51269 31.1429 2.46562C31.1062 2.44796 31.0571 2.44208 31.0142 2.44208C30.8609 2.44796 30.7077 2.44796 30.5544 2.44796C30.4993 2.44796 30.4441 2.45385 30.3889 2.45973C30.3582 2.46562 30.3214 2.46562 30.2969 2.48327C30.254 2.50092 30.2295 2.53034 30.2295 2.57153C30.2356 2.61272 30.254 2.63626 30.2969 2.65391C30.3214 2.67157 30.3521 2.67745 30.3827 2.67745C30.4563 2.68333 30.536 2.6951 30.6157 2.70099ZM32.3017 2.97166C32.3017 2.97754 32.3078 2.98343 32.3078 2.98343C32.3323 3.1423 32.3569 3.29529 32.3752 3.44828C32.3814 3.50123 32.3875 3.54831 32.4243 3.5895C32.504 3.68953 32.6266 3.67776 32.6818 3.57185C32.7063 3.51889 32.7124 3.46593 32.7002 3.40709C32.6634 3.23056 32.645 3.05403 32.6082 2.88339C32.5837 2.77748 32.5531 2.67745 32.5224 2.5833C32.504 2.52446 32.4611 2.48327 32.3875 2.47738C32.314 2.46562 32.2588 2.50092 32.2281 2.55388C32.1913 2.60095 32.1607 2.64803 32.1361 2.70099C32.0932 2.79513 32.0565 2.88928 32.0074 2.97754C32.0013 3.00108 31.9951 3.01873 31.9829 3.03638C31.9768 3.02461 31.9706 3.01873 31.9706 3.01873C31.8909 2.87163 31.8173 2.72452 31.7377 2.5833C31.7254 2.57153 31.7193 2.55976 31.7131 2.54799C31.6763 2.49504 31.6334 2.46562 31.566 2.46562C31.5047 2.4715 31.4556 2.50681 31.425 2.55976C31.4127 2.5833 31.4127 2.60095 31.4066 2.62449C31.3821 2.81278 31.3514 3.00108 31.3269 3.18937C31.3146 3.29529 31.3085 3.4012 31.3085 3.50712C31.3024 3.53065 31.3085 3.56008 31.3207 3.58361C31.333 3.63068 31.3698 3.66011 31.4188 3.66599C31.4801 3.67188 31.5231 3.65422 31.5415 3.60715C31.5598 3.57185 31.566 3.54243 31.5721 3.51301C31.5967 3.40709 31.615 3.30706 31.6334 3.20703C31.6457 3.14818 31.6518 3.10111 31.6702 3.03638C31.6825 3.05992 31.6947 3.07757 31.707 3.09522C31.7622 3.16584 31.8174 3.23645 31.8848 3.29529C31.9522 3.34236 32.0074 3.33648 32.0626 3.28352C32.0749 3.27175 32.081 3.26587 32.0932 3.2541C32.1484 3.17172 32.2159 3.08934 32.271 3.00696C32.2833 2.99519 32.2894 2.98343 32.3017 2.97166Z" fill="#3A3B7B"/>
<path d="M18.176 2.81659C18.1334 2.92842 18.1253 3.00898 18.1449 3.07594C18.1667 3.167 18.2231 3.19681 18.2996 3.17365C19.0197 3.00275 20.5988 3.48785 21.1834 3.62306C21.3213 3.65145 21.4335 3.48062 21.3394 3.32747C21.2021 3.17914 19.6237 2.54412 19.0215 2.5095C18.7854 2.4967 18.3634 2.4386 18.176 2.81659Z" fill="#3A3B7B"/>
<path d="M24.3473 0.760957C24.4241 0.803472 24.467 0.844027 24.4881 0.88934C24.5197 0.948779 24.503 0.989903 24.45 1.01089C23.974 1.23386 23.3406 2.1938 23.0849 2.52488C23.023 2.60104 22.88 2.55678 22.8584 2.43153C22.8628 2.28992 23.4243 1.24817 23.7377 0.964432C23.8608 0.853653 24.0643 0.636289 24.3473 0.760957Z" fill="#3A3B7B"/>
<path d="M20.556 0.288449C20.6482 0.221754 20.744 0.198382 20.793 0.241725C21.5112 0.831225 21.892 1.76475 22.1279 2.61937C22.1367 2.63928 22.1373 2.66785 22.1302 2.69766C22.1272 2.72314 22.1079 2.75005 22.0771 2.77087C22.0441 2.79386 22.0158 2.80086 22.0025 2.78105C21.6877 2.37014 19.8899 0.771364 20.556 0.288449Z" fill="#3A3B7B"/>
<path d="M5.34763 10.5089C5.51976 10.3859 5.7069 10.2835 5.90492 10.204C6.1121 10.1472 6.33293 10.1566 6.53403 10.2309C6.73509 10.3052 6.90554 10.4403 7.01948 10.6159C7.12141 10.7909 7.16128 10.9931 7.13314 11.1918C7.10501 11.3905 7.01036 11.5751 6.86343 11.7177C6.74953 11.8333 6.62021 11.934 6.47893 12.0172C5.84921 12.4077 5.21388 12.7767 4.57858 13.1672C4.44858 13.2649 4.31068 13.3526 4.16618 13.4293C3.9464 13.5345 3.69522 13.5627 3.45608 13.5089C3.21694 13.4553 3.00488 13.323 2.85656 13.1351C2.74569 13.0021 2.65212 12.8566 2.57792 12.7019C1.97605 11.4877 1.35189 10.2789 0.772316 9.04334C0.504817 8.5085 0.287477 7.89338 0.0757089 7.29968C-0.0159119 7.12718 -0.0338034 6.9272 0.0258441 6.74222C0.0854916 6.55725 0.217972 6.4019 0.395105 6.30923C0.572239 6.21656 0.780046 6.1939 0.974337 6.24601C1.16863 6.29813 1.33407 6.42094 1.43548 6.5883C1.74719 6.98588 2.02311 7.40818 2.26027 7.85062C2.86213 8.92034 3.43614 9.99006 4.01572 11.0277C4.04946 11.0851 4.08668 11.1404 4.12717 11.1935C4.5634 11.0175 4.9737 10.7873 5.34763 10.5089Z" fill="#3A3B7B"/>
<path d="M11.5702 10.1357C10.1937 11.6815 7.88651 11.291 6.72736 9.30133C5.90256 7.88927 5.75768 5.55724 7.55216 4.08635C7.93535 3.77841 8.39355 3.56864 8.88405 3.4766C9.48545 3.39385 10.0987 3.49568 10.6362 3.76754C11.1736 4.0394 11.6078 4.46736 11.8767 4.99029C12.8575 6.70188 12.7182 8.88412 11.5702 10.1357ZM11.0129 6.53071C10.8666 6.11011 10.5733 5.75102 10.1825 5.51444C9.96141 5.36318 9.69272 5.28964 9.42174 5.3062C9.15072 5.32276 8.89395 5.42842 8.69458 5.60536C7.89768 6.28467 7.73046 7.89464 8.31003 8.85205C8.38392 9.00818 8.4924 9.14691 8.62798 9.25857C8.76356 9.37024 8.92293 9.45213 9.09492 9.49847C9.26691 9.54485 9.44736 9.55457 9.62369 9.527C9.80003 9.49938 9.9679 9.43516 10.1157 9.33877C10.5477 9.01731 10.8646 8.57468 11.0224 8.07242C11.1802 7.57011 11.171 7.03311 10.9962 6.53608L11.0129 6.53071Z" fill="#3A3B7B"/>
<path d="M17.1877 7.20464C17.0468 7.23372 16.9012 7.23547 16.7596 7.20973C16.618 7.18399 16.4831 7.13137 16.363 7.05489C16.2579 6.99718 16.1674 6.91786 16.098 6.82257C16.0287 6.72728 15.9823 6.61846 15.962 6.50386C15.9418 6.3893 15.9483 6.27186 15.9809 6.15996C16.0136 6.04807 16.0718 5.94452 16.1512 5.85676C16.2896 5.68041 16.486 5.55415 16.7085 5.49841C17.2896 5.33656 17.8878 5.23788 18.4918 5.20425C18.6245 5.18943 18.759 5.20021 18.8873 5.23595C19.0156 5.27173 19.1352 5.33169 19.239 5.41244C19.3428 5.49314 19.4288 5.59297 19.4919 5.70601C19.555 5.81905 19.5939 5.94306 19.6064 6.07073C19.7805 6.69788 19.7996 7.35543 19.6621 7.99093C19.1606 10.0448 17.433 10.7508 15.4936 10.0929C14.9492 9.91704 14.4719 9.58929 14.1227 9.15158C13.6569 8.62445 13.3267 7.99974 13.1586 7.32768C13.0224 6.72921 13.0373 6.10821 13.2021 5.51644C13.3669 4.92467 13.6768 4.37931 14.106 3.9259C14.5132 3.4331 15.0418 3.04527 15.6441 2.79732C16.0247 2.59599 16.47 2.53874 16.8924 2.63686C16.9882 2.66231 17.0752 2.71191 17.1443 2.7805C17.2134 2.84909 17.2622 2.93418 17.2855 3.02695C17.3088 3.11972 17.3058 3.21678 17.2769 3.30807C17.2479 3.39937 17.1941 3.48156 17.1209 3.54614C16.9817 3.66705 16.8305 3.77454 16.6695 3.86706C16.174 4.16988 15.7429 4.56009 15.3989 5.01702C15.1734 5.3127 15.0181 5.65224 14.9439 6.01169C14.8698 6.37114 14.8786 6.74183 14.9698 7.0977C15.0962 7.58289 15.3766 8.01841 15.7722 8.34391C16.9983 9.41367 18.5921 8.38134 18.3135 6.92116C17.9067 7.01746 17.55 7.11907 17.1877 7.20464Z" fill="#3A3B7B"/>
<path d="M24.6782 10.2213C22.8671 11.291 20.8051 10.2213 20.3537 7.97484C20.0249 6.37023 20.649 4.12377 22.8336 3.26798C23.2984 3.08981 23.8026 3.02726 24.2993 3.08612C24.8961 3.19097 25.4435 3.47295 25.8644 3.8923C26.2853 4.31165 26.5585 4.8472 26.6454 5.42351C27.0132 7.33297 26.1773 9.37084 24.6782 10.2213ZM25.308 6.6216C25.3074 6.17727 25.1437 5.74731 24.8454 5.40745C24.686 5.19724 24.4556 5.04663 24.1934 4.98125C23.9311 4.91592 23.6535 4.93987 23.4076 5.04911C22.4268 5.45558 21.7358 6.93182 21.9865 8.01764C22.0057 8.18803 22.0634 8.35236 22.1556 8.49912C22.2478 8.64589 22.3723 8.77154 22.5204 8.86734C22.6685 8.96308 22.8366 9.02667 23.0129 9.0536C23.1893 9.08048 23.3697 9.07011 23.5414 9.02318C24.0598 8.84935 24.5087 8.52449 24.8254 8.09394C25.1421 7.66338 25.3108 7.14863 25.308 6.6216Z" fill="#3A3B7B"/>
<path d="M28.4766 10.6706C28.4493 10.8664 28.3421 11.0437 28.1785 11.1636C28.0149 11.2834 27.8084 11.336 27.6045 11.3098C27.4005 11.2835 27.2158 11.1806 27.0909 11.0236C26.966 10.8666 26.9112 10.6685 26.9385 10.4727C26.9659 10.2769 27.0731 10.0996 27.2367 9.97974C27.4002 9.85987 27.6067 9.80729 27.8107 9.83353C28.0146 9.85978 28.1994 9.96268 28.3243 10.1197C28.4492 10.2767 28.504 10.4749 28.4766 10.6706ZM27.9918 3.4552C28.0978 3.29983 28.2533 3.18152 28.4351 3.1179C28.6168 3.05428 28.8152 3.04877 29.0005 3.10219C29.1889 3.14743 29.3553 3.25341 29.472 3.40238C29.5886 3.55137 29.6484 3.73429 29.6414 3.92054C29.6168 4.21928 29.5702 4.51598 29.502 4.80841C29.3181 5.79794 29.1398 6.78742 28.9448 7.76626C28.8556 8.15672 28.7386 8.53112 28.6104 8.92691C28.5658 9.05064 28.4913 9.16244 28.393 9.25319C28.332 9.32145 28.254 9.3738 28.1662 9.40541C28.0784 9.43706 27.9838 9.44693 27.891 9.43413C27.7982 9.42133 27.7103 9.38628 27.6354 9.33223C27.5604 9.27814 27.5009 9.2068 27.4624 9.12482C27.3961 8.97774 27.3601 8.81969 27.3565 8.65949C27.3565 7.99624 27.3565 7.32767 27.4011 6.65905C27.4768 5.7049 27.6258 4.75738 27.8469 3.82426C27.8729 3.69924 27.9219 3.57969 27.9918 3.47125V3.4552Z" fill="#3A3B7B"/>
<path fill-rule="evenodd" clip-rule="evenodd" d="M2.993 14.9687C2.9272 15.1097 2.90916 15.2669 2.94131 15.4182C2.9627 15.6175 3.00968 15.8137 3.08119 16.002C3.17047 16.2327 3.27036 16.4608 3.39354 16.7419C3.42187 16.8066 3.45147 16.8742 3.48245 16.9452C3.64856 17.3261 3.85698 17.8129 4.13499 18.5173C4.21368 18.7174 4.28356 18.9192 4.35392 19.1223C4.38235 19.2044 4.41087 19.2868 4.44008 19.3693C4.54475 19.6627 4.72485 19.9263 4.96358 20.1353C5.06495 20.2501 5.19941 20.3338 5.35018 20.3756C5.50389 20.4183 5.66737 20.4156 5.81945 20.3679C5.97153 20.3201 6.1051 20.2295 6.20283 20.1079C6.29864 19.9887 6.35561 19.845 6.36669 19.6949C6.42885 19.4025 6.40763 19.0993 6.30518 18.8173C6.14259 18.3493 5.95737 17.8805 5.74379 17.422L5.74281 17.42C5.39144 16.7026 5.03429 15.9902 4.66023 15.2776L4.65743 15.2726C4.54793 15.0869 4.40562 14.9209 4.2369 14.7821C4.12737 14.6582 3.97629 14.5746 3.80944 14.5458C3.63904 14.5164 3.46329 14.546 3.31358 14.6295C3.17195 14.7071 3.05968 14.8259 2.993 14.9687Z" fill="#3A3B7B"/>
<path fill-rule="evenodd" clip-rule="evenodd" d="M8.35976 13.2023C7.80884 13.0654 7.23347 13.0454 6.67376 13.1439C6.24023 13.1849 5.81386 13.2808 5.51779 13.471C5.3672 13.5677 5.24546 13.6919 5.17774 13.8499C5.10964 14.0086 5.10095 14.1902 5.15675 14.3925C5.25864 14.7631 5.39095 15.1235 5.52279 15.4826L5.54415 15.5408L5.54466 15.5421C5.94164 16.5855 6.3424 17.6254 6.74681 18.6617C6.79396 18.8251 6.86066 18.9826 6.94553 19.1312L6.94712 19.134C7.05924 19.3186 7.20304 19.4837 7.37246 19.6224C7.4572 19.6986 7.56198 19.7514 7.67559 19.775C7.79033 19.7987 7.90965 19.7918 8.02055 19.755C8.1315 19.7181 8.22974 19.6527 8.30462 19.5659C8.37827 19.4806 8.4265 19.3777 8.44422 19.2682C8.51731 18.9709 8.4939 18.6591 8.37706 18.3749C8.3406 18.2792 8.312 18.1815 8.28185 18.0785C8.27181 18.0442 8.26162 18.0093 8.25087 17.9738C9.17657 17.6265 10.1615 17.1595 10.5079 16.0731C10.6435 15.6977 10.6548 15.2912 10.5402 14.9093C10.4255 14.527 10.1902 14.1882 9.86672 13.9394C9.42642 13.5912 8.91209 13.3396 8.35976 13.2023ZM6.83266 14.5348C6.85089 14.5298 6.86926 14.5251 6.88767 14.5208C7.49033 14.4298 8.10692 14.551 8.62392 14.8619C8.85175 15.0139 8.94509 15.1829 8.96112 15.3455C8.97766 15.5129 8.91424 15.6943 8.78684 15.8687C8.5461 16.1981 8.10678 16.4617 7.70994 16.5109C7.42065 15.8714 7.12686 15.2061 6.83266 14.5348Z" fill="#3A3B7B"/>
<path d="M12.0327 12.0319C12.6888 11.741 13.5015 11.6908 14.1374 11.8953C14.2976 11.9401 14.4365 12.0369 14.5305 12.1693C14.6239 12.3008 14.667 12.4593 14.6526 12.6178C14.6517 12.7206 14.6253 12.8218 14.5758 12.9131C14.5255 13.0061 14.4525 13.086 14.3631 13.1462C14.2738 13.2063 14.1706 13.245 14.0624 13.2588C13.9542 13.2727 13.8441 13.2613 13.7415 13.2256L13.7337 13.2229L13.7263 13.2192C13.6738 13.1928 13.618 13.173 13.5603 13.16L13.5566 13.1592C13.1093 13.0452 12.6873 13.2342 12.5332 13.4663C12.4596 13.5771 12.4505 13.6888 12.5117 13.7905C12.5773 13.8993 12.7381 14.0215 13.0636 14.1086C13.1531 14.1322 13.2448 14.1549 13.3379 14.178C13.5952 14.242 13.8626 14.3084 14.1212 14.4005L14.1222 14.4009C15.3152 14.8365 15.7594 15.7388 15.6073 16.5874C15.4569 17.4267 14.7266 18.1904 13.6285 18.3706C13.2289 18.4556 12.813 18.439 12.4221 18.3226C12.0301 18.2057 11.6769 17.9925 11.3973 17.704L11.39 17.6965C11.3018 17.5878 11.2424 17.4602 11.2161 17.3247C11.1919 17.2024 11.2047 17.0761 11.2528 16.9605C11.3007 16.8456 11.3816 16.7462 11.4861 16.6738C11.5964 16.5916 11.7294 16.5424 11.8687 16.5321C12.0074 16.5219 12.1463 16.5508 12.2681 16.6153C12.3898 16.6717 12.503 16.7437 12.6046 16.8293L12.6065 16.8309C12.7863 16.9887 13.0037 17.0298 13.2123 16.9917C13.4238 16.9531 13.6228 16.8329 13.7508 16.6735C13.8779 16.5151 13.9289 16.3269 13.8684 16.1442C13.8074 15.9602 13.6242 15.754 13.2215 15.5817C13.1163 15.5388 13.0071 15.5042 12.8936 15.4705C12.863 15.4614 12.8319 15.4524 12.8004 15.4432C12.7164 15.4187 12.6301 15.3936 12.5454 15.3658C12.4871 15.3467 12.4292 15.3286 12.3719 15.3107C12.2153 15.2618 12.0626 15.214 11.9157 15.15C11.5959 15.0455 11.3196 14.8449 11.1279 14.5777C10.9354 14.3095 10.8386 13.9888 10.8518 13.6634C10.8528 12.8705 11.3731 12.3243 12.0327 12.0319Z" fill="#3A3B7B"/>
<path d="M20.3504 11.9474C20.2232 11.8878 20.0825 11.8595 19.9411 11.865C19.7996 11.8706 19.6618 11.9099 19.5402 11.9794C19.4192 12.0484 19.318 12.145 19.2455 12.2606C19.179 12.358 19.1329 12.467 19.11 12.5813C19.087 12.6956 19.0876 12.8131 19.1116 12.9271C19.1353 13.0736 19.1615 13.2161 19.1875 13.3566C19.2304 13.5892 19.2722 13.8165 19.2998 14.0483L19.3008 14.0541C19.3636 14.4176 19.3964 14.7852 19.3994 15.1536L19.3997 15.1589C19.4211 15.5567 19.2799 15.9468 19.0062 16.2464L19.0019 16.2517C18.9129 16.3612 18.7938 16.4448 18.6581 16.4931C18.5223 16.5414 18.3753 16.5525 18.2334 16.5252C18.0914 16.4978 17.9602 16.4331 17.8544 16.3383C17.7486 16.2435 17.6723 16.1219 17.6342 15.9879C17.5529 15.7054 17.5058 15.4149 17.4939 15.1221L17.6328 12.9997C17.6348 12.972 17.6372 12.9435 17.6395 12.9148C17.6448 12.8504 17.6502 12.7847 17.6525 12.7235C17.6558 12.6334 17.6529 12.5407 17.6311 12.453C17.6087 12.3633 17.5661 12.278 17.4906 12.2054C17.4158 12.1335 17.3149 12.0805 17.1878 12.0444C16.9581 11.9806 16.7639 11.9826 16.602 12.0485C16.4401 12.1144 16.3291 12.2368 16.2506 12.3782C16.1727 12.5184 16.1227 12.6844 16.0848 12.8507C16.0567 12.974 16.0341 13.1036 16.0127 13.2268C16.0053 13.2693 15.998 13.311 15.9907 13.3515L15.9905 13.3527C15.8757 14.0288 15.8416 14.7152 15.8887 15.3987C15.8974 15.768 15.9777 16.1326 16.1254 16.4738C16.292 16.914 16.5938 17.2955 16.9909 17.5677C17.3888 17.8406 17.8637 17.9909 18.3527 17.9988C18.8416 18.0068 19.3216 17.8719 19.7289 17.6122C20.1356 17.3529 20.4508 16.9812 20.6328 16.5463C20.8874 15.9924 21.0069 15.3899 20.9822 14.7849C20.9673 14.3432 20.9422 13.8981 20.9173 13.4552C20.9051 13.238 20.8929 13.0212 20.8819 12.8058C20.8764 12.5897 20.8022 12.3805 20.6692 12.2061C20.5869 12.0959 20.4774 12.0069 20.3504 11.9474Z" fill="#3A3B7B"/>
<path d="M24.8532 15.2754C24.8403 15.2912 24.8267 15.3074 24.8125 15.3244C24.7091 14.7515 24.6132 14.1787 24.5171 13.6051C24.4827 13.3993 24.448 13.1926 24.4132 12.9866L24.4093 12.9636L24.3966 12.9437C24.3726 12.9063 24.3702 12.8697 24.3702 12.7915V12.7825L24.3688 12.7735C24.3428 12.6121 24.2667 12.4618 24.1505 12.3424C24.0346 12.2234 23.884 12.1405 23.7184 12.1046C23.5531 12.0654 23.3794 12.0741 23.2192 12.1294C23.0593 12.1846 22.92 12.2838 22.8186 12.4145C22.7343 12.5148 22.6651 12.6261 22.6134 12.7451C22.4958 13.0012 22.3773 13.2581 22.2584 13.5156L22.2563 13.52C21.9595 14.1629 21.6606 14.8101 21.3705 15.4624L21.3696 15.4645C21.1915 15.8874 21.0445 16.3331 20.898 16.7774C20.8687 16.866 20.8394 16.9547 20.81 17.0431C20.7571 17.1833 20.7339 17.3322 20.7419 17.4811C20.7322 17.6143 20.7655 17.7473 20.8372 17.8619C20.9103 17.9789 21.0198 18.071 21.1502 18.1251C21.2884 18.1833 21.443 18.1957 21.5894 18.1602C21.7355 18.1249 21.8653 18.0439 21.9582 17.9302C22.0769 17.79 22.179 17.6371 22.2623 17.4752C22.5081 16.9927 22.743 16.5042 22.9768 16.0179C23.0673 15.8298 23.1552 15.6614 23.2552 15.4779C23.2621 15.5005 23.2691 15.5226 23.2764 15.5447C23.3812 15.9877 23.5581 16.4119 23.8006 16.802C23.8465 16.8846 23.9105 16.9568 23.9881 17.0137C24.0666 17.0712 24.1572 17.1116 24.2536 17.1321C24.35 17.1526 24.45 17.1527 24.5464 17.1324C24.6427 17.1121 24.7336 17.0717 24.8122 17.0144L24.9677 16.9027L26.1746 15.927L26.1032 16.3635C26.0052 16.9636 25.908 17.5586 25.8047 18.1538C25.7372 18.4176 25.7372 18.6931 25.805 18.9568C25.8344 19.1052 25.9091 19.2418 26.0198 19.3493C26.1314 19.4576 26.2743 19.5312 26.4301 19.5605C26.5858 19.5899 26.7471 19.5736 26.8931 19.5138C27.0369 19.455 27.1593 19.3565 27.2448 19.2311C27.4438 18.9941 27.5677 18.7072 27.6017 18.4046C27.6529 17.9772 27.7108 17.544 27.7687 17.1109C27.8354 16.6117 27.9021 16.1126 27.9584 15.6232L27.9586 15.6217C28.0128 15.0859 28.039 14.5479 28.0372 14.0095C28.0491 13.8394 28.0049 13.6699 27.9109 13.5251C27.8165 13.3798 27.6768 13.2668 27.5116 13.2021C27.3398 13.1272 27.1475 13.1071 26.963 13.145C26.7796 13.1826 26.6136 13.2754 26.4891 13.4098C26.2665 13.6074 26.0577 13.8188 25.864 14.0427L25.8627 14.0443C25.6512 14.2972 25.4412 14.5551 25.2325 14.8113C25.1056 14.967 24.9791 15.1224 24.8532 15.2754Z" fill="#3A3B7B"/>
</g>
<defs>
<clipPath id="clip0_211_2057">
<rect width="32.7153" height="20.186" fill="white" transform="translate(-0.00878906 0.219727)"/>
</clipPath>
</defs>
</svg>
