<svg width="26" height="22" viewBox="0 0 26 22" fill="none" xmlns="http://www.w3.org/2000/svg">
<path d="M15.2824 7.66575C15.0652 7.66575 14.8887 7.48947 14.8887 7.272V6.60285C14.8887 6.38567 15.0649 6.20911 15.2824 6.20911C15.4996 6.20911 15.6762 6.38538 15.6762 6.60285V7.272C15.6762 7.48947 15.4996 7.66575 15.2824 7.66575Z" fill="#103E13"/>
<path d="M13.6271 7.66575C13.41 7.66575 13.2334 7.48947 13.2334 7.272V6.60285C13.2334 6.38567 13.4097 6.20911 13.6271 6.20911C13.8443 6.20911 14.0209 6.38538 14.0209 6.60285V7.272C14.0206 7.48947 13.8446 7.66575 13.6271 7.66575Z" fill="#103E13"/>
<path d="M11.9719 7.66575C11.7547 7.66575 11.5781 7.48947 11.5781 7.272V6.60285C11.5781 6.38567 11.7544 6.20911 11.9719 6.20911C12.1891 6.20911 12.3656 6.38538 12.3656 6.60285V7.272C12.3656 7.48947 12.1893 7.66575 11.9719 7.66575Z" fill="#103E13"/>
<path d="M15.2824 10.4021C15.0652 10.4021 14.8887 10.2258 14.8887 10.0084V9.33949C14.8887 9.1223 15.0649 8.94574 15.2824 8.94574C15.4996 8.94574 15.6762 9.12202 15.6762 9.33949V10.0084C15.6762 10.2258 15.4996 10.4021 15.2824 10.4021Z" fill="#103E13"/>
<path d="M13.6271 10.4021C13.41 10.4021 13.2334 10.2258 13.2334 10.0084V9.33949C13.2334 9.1223 13.4097 8.94574 13.6271 8.94574C13.8443 8.94574 14.0209 9.12202 14.0209 9.33949V10.0084C14.0206 10.2258 13.8446 10.4021 13.6271 10.4021Z" fill="#103E13"/>
<path d="M11.9719 10.4021C11.7547 10.4021 11.5781 10.2258 11.5781 10.0084V9.33949C11.5781 9.1223 11.7544 8.94574 11.9719 8.94574C12.1891 8.94574 12.3656 9.12202 12.3656 9.33949V10.0084C12.3656 10.2258 12.1893 10.4021 11.9719 10.4021Z" fill="#103E13"/>
<path d="M15.2824 13.1386C15.0652 13.1386 14.8887 12.9623 14.8887 12.7448V12.0757C14.8887 11.8585 15.0649 11.6819 15.2824 11.6819C15.4996 11.6819 15.6762 11.8582 15.6762 12.0757V12.7448C15.6762 12.9623 15.4996 13.1386 15.2824 13.1386Z" fill="#103E13"/>
<path d="M13.6271 13.1386C13.41 13.1386 13.2334 12.9623 13.2334 12.7448V12.0757C13.2334 11.8585 13.4097 11.6819 13.6271 11.6819C13.8443 11.6819 14.0209 11.8582 14.0209 12.0757V12.7448C14.0206 12.9623 13.8446 13.1386 13.6271 13.1386Z" fill="#103E13"/>
<path d="M11.9719 13.1386C11.7547 13.1386 11.5781 12.9623 11.5781 12.7448V12.0757C11.5781 11.8585 11.7544 11.6819 11.9719 11.6819C12.1891 11.6819 12.3656 11.8582 12.3656 12.0757V12.7448C12.3656 12.9623 12.1893 13.1386 11.9719 13.1386Z" fill="#103E13"/>
<path d="M15.2824 15.8744C15.0652 15.8744 14.8887 15.6981 14.8887 15.4807V14.8115C14.8887 14.5943 15.0649 14.4178 15.2824 14.4178C15.4996 14.4178 15.6762 14.5941 15.6762 14.8115V15.4807C15.6762 15.6981 15.4996 15.8744 15.2824 15.8744Z" fill="#103E13"/>
<path d="M13.6271 15.8744C13.41 15.8744 13.2334 15.6981 13.2334 15.4807V14.8115C13.2334 14.5943 13.4097 14.4178 13.6271 14.4178C13.8443 14.4178 14.0209 14.5941 14.0209 14.8115V15.4807C14.0206 15.6981 13.8446 15.8744 13.6271 15.8744Z" fill="#103E13"/>
<path d="M11.9719 15.8744C11.7547 15.8744 11.5781 15.6981 11.5781 15.4807V14.8115C11.5781 14.5943 11.7544 14.4178 11.9719 14.4178C12.1891 14.4178 12.3656 14.5941 12.3656 14.8115V15.4807C12.3656 15.6981 12.1893 15.8744 11.9719 15.8744Z" fill="#103E13"/>
<path d="M15.2824 18.6108C15.0652 18.6108 14.8887 18.4345 14.8887 18.217V17.5482C14.8887 17.331 15.0649 17.1544 15.2824 17.1544C15.4996 17.1544 15.6762 17.3307 15.6762 17.5482V18.217C15.6762 18.4342 15.4996 18.6108 15.2824 18.6108Z" fill="#103E13"/>
<path d="M13.6271 18.6108C13.41 18.6108 13.2334 18.4345 13.2334 18.217V17.5482C13.2334 17.331 13.4097 17.1544 13.6271 17.1544C13.8443 17.1544 14.0209 17.3307 14.0209 17.5482V18.217C14.0206 18.4342 13.8446 18.6108 13.6271 18.6108Z" fill="#103E13"/>
<path d="M11.9719 18.6108C11.7547 18.6108 11.5781 18.4345 11.5781 18.217L11.5784 17.5482C11.5784 17.331 11.7547 17.1544 11.9721 17.1544C12.1893 17.1544 12.3659 17.3307 12.3659 17.5482V18.217C12.3656 18.4342 12.1893 18.6108 11.9719 18.6108Z" fill="#103E13"/>
<path d="M0.723963 21.334C0.723963 21.5512 0.900242 21.7277 1.11771 21.7277H25.0957C25.3129 21.7277 25.4895 21.5514 25.4895 21.334C25.4895 21.1168 25.3132 20.9402 25.0957 20.9402H24.3679V9.63516C24.3679 9.41797 24.1916 9.24141 23.9741 9.24141L17.5454 9.24168V1.09132C17.5454 0.953484 17.4735 0.82608 17.356 0.754684C17.2387 0.683021 17.0921 0.678628 16.9702 0.742054L9.66121 4.54745C9.53078 4.61528 9.44951 4.74982 9.44951 4.89672V12.0159H2.37602C2.15883 12.0159 1.98227 12.1922 1.98227 12.4097V20.9403H1.11683C0.899645 20.94 0.723633 21.1163 0.723633 21.3338L0.723963 21.334ZM17.5456 15.2051H23.5808V20.9406L17.5456 20.9403V15.2051ZM17.5456 12.469H23.5808V14.4179L17.5456 14.4177V12.469ZM17.5456 10.0288H23.5808V11.682H17.5456V10.0288ZM10.2366 5.13581L16.7578 1.74035V20.9399H10.2366V5.13581ZM4.7162 17.7954C4.7162 16.9783 5.36365 16.3132 6.15965 16.3132C6.95564 16.3132 7.60338 16.978 7.60338 17.7954V20.9404H4.7162V17.7954ZM2.76974 12.8033H9.44939V20.9403H8.39086V17.7953C8.39086 16.544 7.39032 15.5259 6.15965 15.5259C4.92954 15.5259 3.929 16.5437 3.929 17.7953V20.9403H2.76974V12.8033Z" fill="#103E13"/>
</svg>
