<svg width="30" height="24" viewBox="0 0 30 24" fill="none" xmlns="http://www.w3.org/2000/svg">
<path d="M2.13275 6.63415V6.98218H2.48079H27.5393H27.8873V6.63415V5.06799C27.8873 4.2834 27.5756 3.53095 27.0209 2.97616C26.4661 2.42137 25.7136 2.1097 24.929 2.1097H5.09105C4.30646 2.1097 3.554 2.42137 2.99922 2.97616C2.44443 3.53095 2.13275 4.2834 2.13275 5.06799V6.63415ZM27.8873 8.72236V8.37432H27.5393H2.48079H2.13275V8.72236V18.6413C2.13275 19.4259 2.44443 20.1784 2.99922 20.7332C3.554 21.288 4.30646 21.5996 5.09105 21.5996H24.929C25.7136 21.5996 26.4661 21.288 27.0209 20.7332C27.5756 20.1784 27.8873 19.4259 27.8873 18.6413V8.72236ZM0.740613 5.06799C0.740613 3.91418 1.19896 2.80763 2.01483 1.99177C2.83069 1.1759 3.93724 0.717557 5.09105 0.717557H24.929C26.0828 0.717557 27.1894 1.1759 28.0052 1.99177C28.8211 2.80763 29.2795 3.91418 29.2795 5.06799V18.6413C29.2795 19.7952 28.8211 20.9017 28.0052 21.7176C27.1894 22.5334 26.0828 22.9918 24.929 22.9918H5.09105C3.93724 22.9918 2.83069 22.5334 2.01483 21.7176C1.19896 20.9017 0.740613 19.7952 0.740613 18.6413V5.06799ZM20.2306 15.335H23.3629C23.5475 15.335 23.7245 15.4084 23.8551 15.5389C23.9856 15.6694 24.0589 15.8465 24.0589 16.0311C24.0589 16.2157 23.9856 16.3927 23.8551 16.5233C23.7245 16.6538 23.5475 16.7272 23.3629 16.7272H20.2306C20.0459 16.7272 19.8689 16.6538 19.7384 16.5233C19.6078 16.3927 19.5345 16.2157 19.5345 16.0311C19.5345 15.8465 19.6078 15.6694 19.7384 15.5389C19.8689 15.4084 20.0459 15.335 20.2306 15.335Z" fill="#4CAF4F" stroke="#4CAF4F" stroke-width="0.696069"/>
</svg>
