<svg width="39" height="22" viewBox="0 0 39 22" fill="none" xmlns="http://www.w3.org/2000/svg">
<g clip-path="url(#clip0_211_2053)">
<path d="M38.4674 7.95044C38.4714 7.92141 38.4714 7.89207 38.4674 7.86305C38.4711 7.8394 38.4711 7.81528 38.4674 7.79158L38.1837 5.75025C38.1429 5.50603 38.0334 5.27777 37.8678 5.09099L37.8191 5.03539L37.7301 4.94801L32.8203 0.801822L32.958 0.936862C32.8453 0.80469 32.7039 0.69897 32.5441 0.62749C32.3842 0.556009 32.21 0.520584 32.0344 0.523828H30.5436C30.3012 0.519119 30.0643 0.594679 29.8712 0.738289C29.6683 0.595544 29.4241 0.520371 29.1744 0.523828H27.6836C27.4881 0.520718 27.2952 0.56829 27.1245 0.66174C26.9538 0.755191 26.8113 0.891202 26.7114 1.056C26.5574 1.29138 26.4996 1.57497 26.5493 1.85029L26.7357 3.13703C26.6123 3.06843 26.4725 3.03283 26.3306 3.03379H19.1118C18.8528 3.03538 18.5997 3.1098 18.3826 3.24824C18.1726 3.37709 18.004 3.56159 17.8965 3.78041L17.3374 3.31178C17.1174 3.1122 16.827 3.00402 16.5272 3.00996H5.20068C4.94076 3.0146 4.68662 3.08578 4.46343 3.21647C4.15808 3.39168 3.93431 3.67657 3.83956 4.01076L0.24229 15.806C0.175076 16.0003 0.168464 16.2099 0.223301 16.408C0.278138 16.606 0.39194 16.7836 0.550168 16.918C0.591398 16.9522 0.634689 16.9841 0.679803 17.0133C0.679803 17.0133 0.606873 16.9656 0.566363 16.9259L5.47617 21.08C5.68387 21.2675 5.95542 21.3723 6.23771 21.3739H17.6534C17.9141 21.3673 18.1684 21.2933 18.3907 21.1595C18.5164 21.0921 18.6289 21.0034 18.7229 20.8973L18.7634 20.8417L18.8282 20.7623L18.8768 20.6749L19.4115 21.1277C19.6163 21.3077 19.8819 21.4067 20.1569 21.4057H31.5969C31.8573 21.3972 32.1111 21.3234 32.3341 21.1912C32.457 21.1198 32.5688 21.0315 32.6664 20.9291L32.7068 20.8735L32.7716 20.7941C32.8061 20.7438 32.836 20.6907 32.8608 20.6352C32.8872 20.5871 32.9089 20.5365 32.9256 20.4843L36.2069 9.71377V9.61845C36.2109 9.58149 36.2109 9.54421 36.2069 9.50725V9.43578C36.2108 9.41208 36.2108 9.38796 36.2069 9.36426C36.2105 9.31404 36.2105 9.26361 36.2069 9.21333H37.2602C37.3518 9.22158 37.444 9.22158 37.5356 9.21333H37.6085C37.6678 9.196 37.7249 9.17199 37.7787 9.14187H37.8597L38.0055 9.03067L38.0703 8.983L38.1837 8.84001V8.7924L38.2648 8.65735C38.2603 8.63109 38.2603 8.6042 38.2648 8.57794C38.2605 8.56505 38.2605 8.55111 38.2648 8.53822C38.282 8.49165 38.2956 8.44383 38.3053 8.39523C38.3015 8.37957 38.3015 8.36322 38.3053 8.34756C38.3014 8.32391 38.3014 8.29974 38.3053 8.27609C38.3053 8.27609 38.4674 7.96631 38.4674 7.95044Z" fill="black"/>
<path d="M16.8597 3.91548C16.9027 3.95361 16.9327 4.00375 16.9458 4.05914C16.9588 4.11453 16.9542 4.1725 16.9326 4.22525L13.3435 16.0125C13.2983 16.1412 13.2058 16.2488 13.0842 16.3144C12.9852 16.3792 12.8707 16.4176 12.752 16.4256H1.34444C1.24702 16.421 1.15472 16.3814 1.08517 16.3144C1.0438 16.2768 1.01476 16.2281 1.00177 16.1743C0.988782 16.1206 0.99244 16.0642 1.01226 16.0125L4.60953 4.22525C4.65097 4.09493 4.74053 3.98447 4.86069 3.91548C4.96127 3.85524 5.07526 3.81981 5.19287 3.81222H16.6004C16.6971 3.81313 16.7897 3.85005 16.8597 3.91548ZM10.9047 13.6376L13.0518 6.60017H7.04013L4.90119 13.6376H10.9047ZM27.7487 4.03462C27.7876 4.07896 27.8363 4.11412 27.891 4.1375C27.9457 4.16088 28.005 4.17187 28.0647 4.16965H29.5473C29.6038 4.17019 29.6594 4.15661 29.7091 4.13021C29.7587 4.1038 29.8006 4.06543 29.8309 4.01873C29.8572 3.98225 29.8758 3.94095 29.8856 3.89728C29.8953 3.85363 29.896 3.80849 29.8876 3.76456L29.5959 1.66764C29.5682 1.57059 29.5183 1.48097 29.4502 1.40552C29.4112 1.36118 29.3626 1.32601 29.3079 1.30263C29.2531 1.27926 29.1938 1.26827 29.1341 1.27049H27.6515C27.595 1.26995 27.5394 1.28353 27.4898 1.30993C27.4401 1.33634 27.3982 1.3747 27.3679 1.42141C27.3112 1.53261 27.2869 1.60409 27.3112 1.66764L27.611 3.76456C27.6264 3.86667 27.6746 3.96128 27.7487 4.03462ZM32.456 1.65175C32.4282 1.5547 32.3783 1.46508 32.3101 1.38963C32.2728 1.34545 32.2256 1.3103 32.1722 1.28688C32.1189 1.26346 32.0607 1.25242 32.0022 1.25461H30.5115C30.456 1.25305 30.401 1.26626 30.3525 1.29283C30.304 1.3194 30.2638 1.35834 30.236 1.40552C30.1821 1.47599 30.1588 1.5645 30.1712 1.65175L30.4709 3.74867C30.4898 3.8497 30.5375 3.94338 30.6087 4.01873C30.6483 4.06221 30.6971 4.09678 30.7516 4.12009C30.8062 4.14339 30.8652 4.15488 30.9247 4.15375H32.4154C32.4708 4.15447 32.5254 4.14092 32.5737 4.11443C32.6221 4.08794 32.6625 4.04947 32.6909 4.00285C32.7191 3.96731 32.7388 3.92603 32.7486 3.88205C32.7585 3.83807 32.7581 3.7925 32.7476 3.74867L32.456 1.65175ZM26.4443 4.82891L26.2984 3.79633H19.112C18.9992 3.80243 18.89 3.83809 18.796 3.89959C18.7364 3.93149 18.6844 3.97571 18.6439 4.02919C18.6033 4.08267 18.5751 4.14414 18.5611 4.20936L17.9615 6.17919C17.9376 6.22842 17.9294 6.28365 17.9381 6.33752C17.9468 6.3914 17.9719 6.44141 18.0101 6.48104C18.0785 6.544 18.1676 6.5807 18.2613 6.5843H26.9953L24.8482 13.6217H16.1386C16.0263 13.6242 15.9169 13.6572 15.8227 13.717C15.7081 13.7884 15.6244 13.8987 15.5877 14.0268L14.98 15.9966C14.9602 16.0472 14.955 16.1021 14.965 16.1553C14.975 16.2086 14.9998 16.2581 15.0367 16.2984C15.1029 16.3656 15.1928 16.4054 15.2879 16.4096H26.7279C26.8462 16.3997 26.9602 16.3615 27.06 16.2984C27.1797 16.2326 27.2694 16.1247 27.3112 15.9966L30.6006 5.22605H26.898C26.8392 5.22719 26.7809 5.2165 26.7266 5.19464C26.6722 5.17278 26.623 5.14021 26.5821 5.09896C26.5151 5.02693 26.4677 4.93952 26.4443 4.84479V4.82891Z" fill="white"/>
</g>
<defs>
<clipPath id="clip0_211_2053">
<rect width="38.2838" height="20.8821" fill="white" transform="translate(0.186523 0.523621)"/>
</clipPath>
</defs>
</svg>
