<svg width="0" height="0" class="hidden">
  <symbol fill="none" xmlns="http://www.w3.org/2000/svg" viewBox="0 0 39 22" id="client-logo 3">
    <g clip-path="url(#clip0_211_2053)">
      <path d="M38.4674 7.95044C38.4714 7.92141 38.4714 7.89207 38.4674 7.86305C38.4711 7.8394 38.4711 7.81528 38.4674 7.79158L38.1837 5.75025C38.1429 5.50603 38.0334 5.27777 37.8678 5.09099L37.8191 5.03539L37.7301 4.94801L32.8203 0.801822L32.958 0.936862C32.8453 0.80469 32.7039 0.69897 32.5441 0.62749C32.3842 0.556009 32.21 0.520584 32.0344 0.523828H30.5436C30.3012 0.519119 30.0643 0.594679 29.8712 0.738289C29.6683 0.595544 29.4241 0.520371 29.1744 0.523828H27.6836C27.4881 0.520718 27.2952 0.56829 27.1245 0.66174C26.9538 0.755191 26.8113 0.891202 26.7114 1.056C26.5574 1.29138 26.4996 1.57497 26.5493 1.85029L26.7357 3.13703C26.6123 3.06843 26.4725 3.03283 26.3306 3.03379H19.1118C18.8528 3.03538 18.5997 3.1098 18.3826 3.24824C18.1726 3.37709 18.004 3.56159 17.8965 3.78041L17.3374 3.31178C17.1174 3.1122 16.827 3.00402 16.5272 3.00996H5.20068C4.94076 3.0146 4.68662 3.08578 4.46343 3.21647C4.15808 3.39168 3.93431 3.67657 3.83956 4.01076L0.24229 15.806C0.175076 16.0003 0.168464 16.2099 0.223301 16.408C0.278138 16.606 0.39194 16.7836 0.550168 16.918C0.591398 16.9522 0.634689 16.9841 0.679803 17.0133C0.679803 17.0133 0.606873 16.9656 0.566363 16.9259L5.47617 21.08C5.68387 21.2675 5.95542 21.3723 6.23771 21.3739H17.6534C17.9141 21.3673 18.1684 21.2933 18.3907 21.1595C18.5164 21.0921 18.6289 21.0034 18.7229 20.8973L18.7634 20.8417L18.8282 20.7623L18.8768 20.6749L19.4115 21.1277C19.6163 21.3077 19.8819 21.4067 20.1569 21.4057H31.5969C31.8573 21.3972 32.1111 21.3234 32.3341 21.1912C32.457 21.1198 32.5688 21.0315 32.6664 20.9291L32.7068 20.8735L32.7716 20.7941C32.8061 20.7438 32.836 20.6907 32.8608 20.6352C32.8872 20.5871 32.9089 20.5365 32.9256 20.4843L36.2069 9.71377V9.61845C36.2109 9.58149 36.2109 9.54421 36.2069 9.50725V9.43578C36.2108 9.41208 36.2108 9.38796 36.2069 9.36426C36.2105 9.31404 36.2105 9.26361 36.2069 9.21333H37.2602C37.3518 9.22158 37.444 9.22158 37.5356 9.21333H37.6085C37.6678 9.196 37.7249 9.17199 37.7787 9.14187H37.8597L38.0055 9.03067L38.0703 8.983L38.1837 8.84001V8.7924L38.2648 8.65735C38.2603 8.63109 38.2603 8.6042 38.2648 8.57794C38.2605 8.56505 38.2605 8.55111 38.2648 8.53822C38.282 8.49165 38.2956 8.44383 38.3053 8.39523C38.3015 8.37957 38.3015 8.36322 38.3053 8.34756C38.3014 8.32391 38.3014 8.29974 38.3053 8.27609C38.3053 8.27609 38.4674 7.96631 38.4674 7.95044Z" fill="black"></path>
      <path d="M16.8597 3.91548C16.9027 3.95361 16.9327 4.00375 16.9458 4.05914C16.9588 4.11453 16.9542 4.1725 16.9326 4.22525L13.3435 16.0125C13.2983 16.1412 13.2058 16.2488 13.0842 16.3144C12.9852 16.3792 12.8707 16.4176 12.752 16.4256H1.34444C1.24702 16.421 1.15472 16.3814 1.08517 16.3144C1.0438 16.2768 1.01476 16.2281 1.00177 16.1743C0.988782 16.1206 0.99244 16.0642 1.01226 16.0125L4.60953 4.22525C4.65097 4.09493 4.74053 3.98447 4.86069 3.91548C4.96127 3.85524 5.07526 3.81981 5.19287 3.81222H16.6004C16.6971 3.81313 16.7897 3.85005 16.8597 3.91548ZM10.9047 13.6376L13.0518 6.60017H7.04013L4.90119 13.6376H10.9047ZM27.7487 4.03462C27.7876 4.07896 27.8363 4.11412 27.891 4.1375C27.9457 4.16088 28.005 4.17187 28.0647 4.16965H29.5473C29.6038 4.17019 29.6594 4.15661 29.7091 4.13021C29.7587 4.1038 29.8006 4.06543 29.8309 4.01873C29.8572 3.98225 29.8758 3.94095 29.8856 3.89728C29.8953 3.85363 29.896 3.80849 29.8876 3.76456L29.5959 1.66764C29.5682 1.57059 29.5183 1.48097 29.4502 1.40552C29.4112 1.36118 29.3626 1.32601 29.3079 1.30263C29.2531 1.27926 29.1938 1.26827 29.1341 1.27049H27.6515C27.595 1.26995 27.5394 1.28353 27.4898 1.30993C27.4401 1.33634 27.3982 1.3747 27.3679 1.42141C27.3112 1.53261 27.2869 1.60409 27.3112 1.66764L27.611 3.76456C27.6264 3.86667 27.6746 3.96128 27.7487 4.03462ZM32.456 1.65175C32.4282 1.5547 32.3783 1.46508 32.3101 1.38963C32.2728 1.34545 32.2256 1.3103 32.1722 1.28688C32.1189 1.26346 32.0607 1.25242 32.0022 1.25461H30.5115C30.456 1.25305 30.401 1.26626 30.3525 1.29283C30.304 1.3194 30.2638 1.35834 30.236 1.40552C30.1821 1.47599 30.1588 1.5645 30.1712 1.65175L30.4709 3.74867C30.4898 3.8497 30.5375 3.94338 30.6087 4.01873C30.6483 4.06221 30.6971 4.09678 30.7516 4.12009C30.8062 4.14339 30.8652 4.15488 30.9247 4.15375H32.4154C32.4708 4.15447 32.5254 4.14092 32.5737 4.11443C32.6221 4.08794 32.6625 4.04947 32.6909 4.00285C32.7191 3.96731 32.7388 3.92603 32.7486 3.88205C32.7585 3.83807 32.7581 3.7925 32.7476 3.74867L32.456 1.65175ZM26.4443 4.82891L26.2984 3.79633H19.112C18.9992 3.80243 18.89 3.83809 18.796 3.89959C18.7364 3.93149 18.6844 3.97571 18.6439 4.02919C18.6033 4.08267 18.5751 4.14414 18.5611 4.20936L17.9615 6.17919C17.9376 6.22842 17.9294 6.28365 17.9381 6.33752C17.9468 6.3914 17.9719 6.44141 18.0101 6.48104C18.0785 6.544 18.1676 6.5807 18.2613 6.5843H26.9953L24.8482 13.6217H16.1386C16.0263 13.6242 15.9169 13.6572 15.8227 13.717C15.7081 13.7884 15.6244 13.8987 15.5877 14.0268L14.98 15.9966C14.9602 16.0472 14.955 16.1021 14.965 16.1553C14.975 16.2086 14.9998 16.2581 15.0367 16.2984C15.1029 16.3656 15.1928 16.4054 15.2879 16.4096H26.7279C26.8462 16.3997 26.9602 16.3615 27.06 16.2984C27.1797 16.2326 27.2694 16.1247 27.3112 15.9966L30.6006 5.22605H26.898C26.8392 5.22719 26.7809 5.2165 26.7266 5.19464C26.6722 5.17278 26.623 5.14021 26.5821 5.09896C26.5151 5.02693 26.4677 4.93952 26.4443 4.84479V4.82891Z" fill="white"></path>
    </g>
    <defs>
      <clipPath id="clip0_211_2053">
        <rect width="38.2838" height="20.8821" fill="white" transform="translate(0.186523 0.523621)"></rect>
      </clipPath>
    </defs>
  </symbol>
  <symbol fill="none" xmlns="http://www.w3.org/2000/svg" viewBox="0 0 33 21" id="client-logo 4">
    <g clip-path="url(#clip0_211_2057)">
      <path d="M30.6157 2.70099C30.6157 2.72452 30.6157 2.75394 30.6096 2.7716C30.5789 3.00108 30.5789 3.23056 30.5973 3.46593C30.6096 3.52477 30.6218 3.58361 30.6709 3.63069C30.7506 3.71895 30.8732 3.7013 30.9223 3.59538C30.9468 3.54243 30.9468 3.48947 30.9345 3.43651C30.8732 3.21291 30.8609 2.97754 30.8548 2.74806C30.8548 2.73629 30.8548 2.71864 30.8548 2.70099C30.9223 2.6951 30.9836 2.68921 31.0387 2.68921C31.0817 2.68333 31.1185 2.67745 31.1491 2.65979C31.241 2.61272 31.241 2.51269 31.1429 2.46562C31.1062 2.44796 31.0571 2.44208 31.0142 2.44208C30.8609 2.44796 30.7077 2.44796 30.5544 2.44796C30.4993 2.44796 30.4441 2.45385 30.3889 2.45973C30.3582 2.46562 30.3214 2.46562 30.2969 2.48327C30.254 2.50092 30.2295 2.53034 30.2295 2.57153C30.2356 2.61272 30.254 2.63626 30.2969 2.65391C30.3214 2.67157 30.3521 2.67745 30.3827 2.67745C30.4563 2.68333 30.536 2.6951 30.6157 2.70099ZM32.3017 2.97166C32.3017 2.97754 32.3078 2.98343 32.3078 2.98343C32.3323 3.1423 32.3569 3.29529 32.3752 3.44828C32.3814 3.50123 32.3875 3.54831 32.4243 3.5895C32.504 3.68953 32.6266 3.67776 32.6818 3.57185C32.7063 3.51889 32.7124 3.46593 32.7002 3.40709C32.6634 3.23056 32.645 3.05403 32.6082 2.88339C32.5837 2.77748 32.5531 2.67745 32.5224 2.5833C32.504 2.52446 32.4611 2.48327 32.3875 2.47738C32.314 2.46562 32.2588 2.50092 32.2281 2.55388C32.1913 2.60095 32.1607 2.64803 32.1361 2.70099C32.0932 2.79513 32.0565 2.88928 32.0074 2.97754C32.0013 3.00108 31.9951 3.01873 31.9829 3.03638C31.9768 3.02461 31.9706 3.01873 31.9706 3.01873C31.8909 2.87163 31.8173 2.72452 31.7377 2.5833C31.7254 2.57153 31.7193 2.55976 31.7131 2.54799C31.6763 2.49504 31.6334 2.46562 31.566 2.46562C31.5047 2.4715 31.4556 2.50681 31.425 2.55976C31.4127 2.5833 31.4127 2.60095 31.4066 2.62449C31.3821 2.81278 31.3514 3.00108 31.3269 3.18937C31.3146 3.29529 31.3085 3.4012 31.3085 3.50712C31.3024 3.53065 31.3085 3.56008 31.3207 3.58361C31.333 3.63068 31.3698 3.66011 31.4188 3.66599C31.4801 3.67188 31.5231 3.65422 31.5415 3.60715C31.5598 3.57185 31.566 3.54243 31.5721 3.51301C31.5967 3.40709 31.615 3.30706 31.6334 3.20703C31.6457 3.14818 31.6518 3.10111 31.6702 3.03638C31.6825 3.05992 31.6947 3.07757 31.707 3.09522C31.7622 3.16584 31.8174 3.23645 31.8848 3.29529C31.9522 3.34236 32.0074 3.33648 32.0626 3.28352C32.0749 3.27175 32.081 3.26587 32.0932 3.2541C32.1484 3.17172 32.2159 3.08934 32.271 3.00696C32.2833 2.99519 32.2894 2.98343 32.3017 2.97166Z" fill="#3A3B7B"></path>
      <path d="M18.176 2.81659C18.1334 2.92842 18.1253 3.00898 18.1449 3.07594C18.1667 3.167 18.2231 3.19681 18.2996 3.17365C19.0197 3.00275 20.5988 3.48785 21.1834 3.62306C21.3213 3.65145 21.4335 3.48062 21.3394 3.32747C21.2021 3.17914 19.6237 2.54412 19.0215 2.5095C18.7854 2.4967 18.3634 2.4386 18.176 2.81659Z" fill="#3A3B7B"></path>
      <path d="M24.3473 0.760957C24.4241 0.803472 24.467 0.844027 24.4881 0.88934C24.5197 0.948779 24.503 0.989903 24.45 1.01089C23.974 1.23386 23.3406 2.1938 23.0849 2.52488C23.023 2.60104 22.88 2.55678 22.8584 2.43153C22.8628 2.28992 23.4243 1.24817 23.7377 0.964432C23.8608 0.853653 24.0643 0.636289 24.3473 0.760957Z" fill="#3A3B7B"></path>
      <path d="M20.556 0.288449C20.6482 0.221754 20.744 0.198382 20.793 0.241725C21.5112 0.831225 21.892 1.76475 22.1279 2.61937C22.1367 2.63928 22.1373 2.66785 22.1302 2.69766C22.1272 2.72314 22.1079 2.75005 22.0771 2.77087C22.0441 2.79386 22.0158 2.80086 22.0025 2.78105C21.6877 2.37014 19.8899 0.771364 20.556 0.288449Z" fill="#3A3B7B"></path>
      <path d="M5.34763 10.5089C5.51976 10.3859 5.7069 10.2835 5.90492 10.204C6.1121 10.1472 6.33293 10.1566 6.53403 10.2309C6.73509 10.3052 6.90554 10.4403 7.01948 10.6159C7.12141 10.7909 7.16128 10.9931 7.13314 11.1918C7.10501 11.3905 7.01036 11.5751 6.86343 11.7177C6.74953 11.8333 6.62021 11.934 6.47893 12.0172C5.84921 12.4077 5.21388 12.7767 4.57858 13.1672C4.44858 13.2649 4.31068 13.3526 4.16618 13.4293C3.9464 13.5345 3.69522 13.5627 3.45608 13.5089C3.21694 13.4553 3.00488 13.323 2.85656 13.1351C2.74569 13.0021 2.65212 12.8566 2.57792 12.7019C1.97605 11.4877 1.35189 10.2789 0.772316 9.04334C0.504817 8.5085 0.287477 7.89338 0.0757089 7.29968C-0.0159119 7.12718 -0.0338034 6.9272 0.0258441 6.74222C0.0854916 6.55725 0.217972 6.4019 0.395105 6.30923C0.572239 6.21656 0.780046 6.1939 0.974337 6.24601C1.16863 6.29813 1.33407 6.42094 1.43548 6.5883C1.74719 6.98588 2.02311 7.40818 2.26027 7.85062C2.86213 8.92034 3.43614 9.99006 4.01572 11.0277C4.04946 11.0851 4.08668 11.1404 4.12717 11.1935C4.5634 11.0175 4.9737 10.7873 5.34763 10.5089Z" fill="#3A3B7B"></path>
      <path d="M11.5702 10.1357C10.1937 11.6815 7.88651 11.291 6.72736 9.30133C5.90256 7.88927 5.75768 5.55724 7.55216 4.08635C7.93535 3.77841 8.39355 3.56864 8.88405 3.4766C9.48545 3.39385 10.0987 3.49568 10.6362 3.76754C11.1736 4.0394 11.6078 4.46736 11.8767 4.99029C12.8575 6.70188 12.7182 8.88412 11.5702 10.1357ZM11.0129 6.53071C10.8666 6.11011 10.5733 5.75102 10.1825 5.51444C9.96141 5.36318 9.69272 5.28964 9.42174 5.3062C9.15072 5.32276 8.89395 5.42842 8.69458 5.60536C7.89768 6.28467 7.73046 7.89464 8.31003 8.85205C8.38392 9.00818 8.4924 9.14691 8.62798 9.25857C8.76356 9.37024 8.92293 9.45213 9.09492 9.49847C9.26691 9.54485 9.44736 9.55457 9.62369 9.527C9.80003 9.49938 9.9679 9.43516 10.1157 9.33877C10.5477 9.01731 10.8646 8.57468 11.0224 8.07242C11.1802 7.57011 11.171 7.03311 10.9962 6.53608L11.0129 6.53071Z" fill="#3A3B7B"></path>
      <path d="M17.1877 7.20464C17.0468 7.23372 16.9012 7.23547 16.7596 7.20973C16.618 7.18399 16.4831 7.13137 16.363 7.05489C16.2579 6.99718 16.1674 6.91786 16.098 6.82257C16.0287 6.72728 15.9823 6.61846 15.962 6.50386C15.9418 6.3893 15.9483 6.27186 15.9809 6.15996C16.0136 6.04807 16.0718 5.94452 16.1512 5.85676C16.2896 5.68041 16.486 5.55415 16.7085 5.49841C17.2896 5.33656 17.8878 5.23788 18.4918 5.20425C18.6245 5.18943 18.759 5.20021 18.8873 5.23595C19.0156 5.27173 19.1352 5.33169 19.239 5.41244C19.3428 5.49314 19.4288 5.59297 19.4919 5.70601C19.555 5.81905 19.5939 5.94306 19.6064 6.07073C19.7805 6.69788 19.7996 7.35543 19.6621 7.99093C19.1606 10.0448 17.433 10.7508 15.4936 10.0929C14.9492 9.91704 14.4719 9.58929 14.1227 9.15158C13.6569 8.62445 13.3267 7.99974 13.1586 7.32768C13.0224 6.72921 13.0373 6.10821 13.2021 5.51644C13.3669 4.92467 13.6768 4.37931 14.106 3.9259C14.5132 3.4331 15.0418 3.04527 15.6441 2.79732C16.0247 2.59599 16.47 2.53874 16.8924 2.63686C16.9882 2.66231 17.0752 2.71191 17.1443 2.7805C17.2134 2.84909 17.2622 2.93418 17.2855 3.02695C17.3088 3.11972 17.3058 3.21678 17.2769 3.30807C17.2479 3.39937 17.1941 3.48156 17.1209 3.54614C16.9817 3.66705 16.8305 3.77454 16.6695 3.86706C16.174 4.16988 15.7429 4.56009 15.3989 5.01702C15.1734 5.3127 15.0181 5.65224 14.9439 6.01169C14.8698 6.37114 14.8786 6.74183 14.9698 7.0977C15.0962 7.58289 15.3766 8.01841 15.7722 8.34391C16.9983 9.41367 18.5921 8.38134 18.3135 6.92116C17.9067 7.01746 17.55 7.11907 17.1877 7.20464Z" fill="#3A3B7B"></path>
      <path d="M24.6782 10.2213C22.8671 11.291 20.8051 10.2213 20.3537 7.97484C20.0249 6.37023 20.649 4.12377 22.8336 3.26798C23.2984 3.08981 23.8026 3.02726 24.2993 3.08612C24.8961 3.19097 25.4435 3.47295 25.8644 3.8923C26.2853 4.31165 26.5585 4.8472 26.6454 5.42351C27.0132 7.33297 26.1773 9.37084 24.6782 10.2213ZM25.308 6.6216C25.3074 6.17727 25.1437 5.74731 24.8454 5.40745C24.686 5.19724 24.4556 5.04663 24.1934 4.98125C23.9311 4.91592 23.6535 4.93987 23.4076 5.04911C22.4268 5.45558 21.7358 6.93182 21.9865 8.01764C22.0057 8.18803 22.0634 8.35236 22.1556 8.49912C22.2478 8.64589 22.3723 8.77154 22.5204 8.86734C22.6685 8.96308 22.8366 9.02667 23.0129 9.0536C23.1893 9.08048 23.3697 9.07011 23.5414 9.02318C24.0598 8.84935 24.5087 8.52449 24.8254 8.09394C25.1421 7.66338 25.3108 7.14863 25.308 6.6216Z" fill="#3A3B7B"></path>
      <path d="M28.4766 10.6706C28.4493 10.8664 28.3421 11.0437 28.1785 11.1636C28.0149 11.2834 27.8084 11.336 27.6045 11.3098C27.4005 11.2835 27.2158 11.1806 27.0909 11.0236C26.966 10.8666 26.9112 10.6685 26.9385 10.4727C26.9659 10.2769 27.0731 10.0996 27.2367 9.97974C27.4002 9.85987 27.6067 9.80729 27.8107 9.83353C28.0146 9.85978 28.1994 9.96268 28.3243 10.1197C28.4492 10.2767 28.504 10.4749 28.4766 10.6706ZM27.9918 3.4552C28.0978 3.29983 28.2533 3.18152 28.4351 3.1179C28.6168 3.05428 28.8152 3.04877 29.0005 3.10219C29.1889 3.14743 29.3553 3.25341 29.472 3.40238C29.5886 3.55137 29.6484 3.73429 29.6414 3.92054C29.6168 4.21928 29.5702 4.51598 29.502 4.80841C29.3181 5.79794 29.1398 6.78742 28.9448 7.76626C28.8556 8.15672 28.7386 8.53112 28.6104 8.92691C28.5658 9.05064 28.4913 9.16244 28.393 9.25319C28.332 9.32145 28.254 9.3738 28.1662 9.40541C28.0784 9.43706 27.9838 9.44693 27.891 9.43413C27.7982 9.42133 27.7103 9.38628 27.6354 9.33223C27.5604 9.27814 27.5009 9.2068 27.4624 9.12482C27.3961 8.97774 27.3601 8.81969 27.3565 8.65949C27.3565 7.99624 27.3565 7.32767 27.4011 6.65905C27.4768 5.7049 27.6258 4.75738 27.8469 3.82426C27.8729 3.69924 27.9219 3.57969 27.9918 3.47125V3.4552Z" fill="#3A3B7B"></path>
      <path fill-rule="evenodd" clip-rule="evenodd" d="M2.993 14.9687C2.9272 15.1097 2.90916 15.2669 2.94131 15.4182C2.9627 15.6175 3.00968 15.8137 3.08119 16.002C3.17047 16.2327 3.27036 16.4608 3.39354 16.7419C3.42187 16.8066 3.45147 16.8742 3.48245 16.9452C3.64856 17.3261 3.85698 17.8129 4.13499 18.5173C4.21368 18.7174 4.28356 18.9192 4.35392 19.1223C4.38235 19.2044 4.41087 19.2868 4.44008 19.3693C4.54475 19.6627 4.72485 19.9263 4.96358 20.1353C5.06495 20.2501 5.19941 20.3338 5.35018 20.3756C5.50389 20.4183 5.66737 20.4156 5.81945 20.3679C5.97153 20.3201 6.1051 20.2295 6.20283 20.1079C6.29864 19.9887 6.35561 19.845 6.36669 19.6949C6.42885 19.4025 6.40763 19.0993 6.30518 18.8173C6.14259 18.3493 5.95737 17.8805 5.74379 17.422L5.74281 17.42C5.39144 16.7026 5.03429 15.9902 4.66023 15.2776L4.65743 15.2726C4.54793 15.0869 4.40562 14.9209 4.2369 14.7821C4.12737 14.6582 3.97629 14.5746 3.80944 14.5458C3.63904 14.5164 3.46329 14.546 3.31358 14.6295C3.17195 14.7071 3.05968 14.8259 2.993 14.9687Z" fill="#3A3B7B"></path>
      <path fill-rule="evenodd" clip-rule="evenodd" d="M8.35976 13.2023C7.80884 13.0654 7.23347 13.0454 6.67376 13.1439C6.24023 13.1849 5.81386 13.2808 5.51779 13.471C5.3672 13.5677 5.24546 13.6919 5.17774 13.8499C5.10964 14.0086 5.10095 14.1902 5.15675 14.3925C5.25864 14.7631 5.39095 15.1235 5.52279 15.4826L5.54415 15.5408L5.54466 15.5421C5.94164 16.5855 6.3424 17.6254 6.74681 18.6617C6.79396 18.8251 6.86066 18.9826 6.94553 19.1312L6.94712 19.134C7.05924 19.3186 7.20304 19.4837 7.37246 19.6224C7.4572 19.6986 7.56198 19.7514 7.67559 19.775C7.79033 19.7987 7.90965 19.7918 8.02055 19.755C8.1315 19.7181 8.22974 19.6527 8.30462 19.5659C8.37827 19.4806 8.4265 19.3777 8.44422 19.2682C8.51731 18.9709 8.4939 18.6591 8.37706 18.3749C8.3406 18.2792 8.312 18.1815 8.28185 18.0785C8.27181 18.0442 8.26162 18.0093 8.25087 17.9738C9.17657 17.6265 10.1615 17.1595 10.5079 16.0731C10.6435 15.6977 10.6548 15.2912 10.5402 14.9093C10.4255 14.527 10.1902 14.1882 9.86672 13.9394C9.42642 13.5912 8.91209 13.3396 8.35976 13.2023ZM6.83266 14.5348C6.85089 14.5298 6.86926 14.5251 6.88767 14.5208C7.49033 14.4298 8.10692 14.551 8.62392 14.8619C8.85175 15.0139 8.94509 15.1829 8.96112 15.3455C8.97766 15.5129 8.91424 15.6943 8.78684 15.8687C8.5461 16.1981 8.10678 16.4617 7.70994 16.5109C7.42065 15.8714 7.12686 15.2061 6.83266 14.5348Z" fill="#3A3B7B"></path>
      <path d="M12.0327 12.0319C12.6888 11.741 13.5015 11.6908 14.1374 11.8953C14.2976 11.9401 14.4365 12.0369 14.5305 12.1693C14.6239 12.3008 14.667 12.4593 14.6526 12.6178C14.6517 12.7206 14.6253 12.8218 14.5758 12.9131C14.5255 13.0061 14.4525 13.086 14.3631 13.1462C14.2738 13.2063 14.1706 13.245 14.0624 13.2588C13.9542 13.2727 13.8441 13.2613 13.7415 13.2256L13.7337 13.2229L13.7263 13.2192C13.6738 13.1928 13.618 13.173 13.5603 13.16L13.5566 13.1592C13.1093 13.0452 12.6873 13.2342 12.5332 13.4663C12.4596 13.5771 12.4505 13.6888 12.5117 13.7905C12.5773 13.8993 12.7381 14.0215 13.0636 14.1086C13.1531 14.1322 13.2448 14.1549 13.3379 14.178C13.5952 14.242 13.8626 14.3084 14.1212 14.4005L14.1222 14.4009C15.3152 14.8365 15.7594 15.7388 15.6073 16.5874C15.4569 17.4267 14.7266 18.1904 13.6285 18.3706C13.2289 18.4556 12.813 18.439 12.4221 18.3226C12.0301 18.2057 11.6769 17.9925 11.3973 17.704L11.39 17.6965C11.3018 17.5878 11.2424 17.4602 11.2161 17.3247C11.1919 17.2024 11.2047 17.0761 11.2528 16.9605C11.3007 16.8456 11.3816 16.7462 11.4861 16.6738C11.5964 16.5916 11.7294 16.5424 11.8687 16.5321C12.0074 16.5219 12.1463 16.5508 12.2681 16.6153C12.3898 16.6717 12.503 16.7437 12.6046 16.8293L12.6065 16.8309C12.7863 16.9887 13.0037 17.0298 13.2123 16.9917C13.4238 16.9531 13.6228 16.8329 13.7508 16.6735C13.8779 16.5151 13.9289 16.3269 13.8684 16.1442C13.8074 15.9602 13.6242 15.754 13.2215 15.5817C13.1163 15.5388 13.0071 15.5042 12.8936 15.4705C12.863 15.4614 12.8319 15.4524 12.8004 15.4432C12.7164 15.4187 12.6301 15.3936 12.5454 15.3658C12.4871 15.3467 12.4292 15.3286 12.3719 15.3107C12.2153 15.2618 12.0626 15.214 11.9157 15.15C11.5959 15.0455 11.3196 14.8449 11.1279 14.5777C10.9354 14.3095 10.8386 13.9888 10.8518 13.6634C10.8528 12.8705 11.3731 12.3243 12.0327 12.0319Z" fill="#3A3B7B"></path>
      <path d="M20.3504 11.9474C20.2232 11.8878 20.0825 11.8595 19.9411 11.865C19.7996 11.8706 19.6618 11.9099 19.5402 11.9794C19.4192 12.0484 19.318 12.145 19.2455 12.2606C19.179 12.358 19.1329 12.467 19.11 12.5813C19.087 12.6956 19.0876 12.8131 19.1116 12.9271C19.1353 13.0736 19.1615 13.2161 19.1875 13.3566C19.2304 13.5892 19.2722 13.8165 19.2998 14.0483L19.3008 14.0541C19.3636 14.4176 19.3964 14.7852 19.3994 15.1536L19.3997 15.1589C19.4211 15.5567 19.2799 15.9468 19.0062 16.2464L19.0019 16.2517C18.9129 16.3612 18.7938 16.4448 18.6581 16.4931C18.5223 16.5414 18.3753 16.5525 18.2334 16.5252C18.0914 16.4978 17.9602 16.4331 17.8544 16.3383C17.7486 16.2435 17.6723 16.1219 17.6342 15.9879C17.5529 15.7054 17.5058 15.4149 17.4939 15.1221L17.6328 12.9997C17.6348 12.972 17.6372 12.9435 17.6395 12.9148C17.6448 12.8504 17.6502 12.7847 17.6525 12.7235C17.6558 12.6334 17.6529 12.5407 17.6311 12.453C17.6087 12.3633 17.5661 12.278 17.4906 12.2054C17.4158 12.1335 17.3149 12.0805 17.1878 12.0444C16.9581 11.9806 16.7639 11.9826 16.602 12.0485C16.4401 12.1144 16.3291 12.2368 16.2506 12.3782C16.1727 12.5184 16.1227 12.6844 16.0848 12.8507C16.0567 12.974 16.0341 13.1036 16.0127 13.2268C16.0053 13.2693 15.998 13.311 15.9907 13.3515L15.9905 13.3527C15.8757 14.0288 15.8416 14.7152 15.8887 15.3987C15.8974 15.768 15.9777 16.1326 16.1254 16.4738C16.292 16.914 16.5938 17.2955 16.9909 17.5677C17.3888 17.8406 17.8637 17.9909 18.3527 17.9988C18.8416 18.0068 19.3216 17.8719 19.7289 17.6122C20.1356 17.3529 20.4508 16.9812 20.6328 16.5463C20.8874 15.9924 21.0069 15.3899 20.9822 14.7849C20.9673 14.3432 20.9422 13.8981 20.9173 13.4552C20.9051 13.238 20.8929 13.0212 20.8819 12.8058C20.8764 12.5897 20.8022 12.3805 20.6692 12.2061C20.5869 12.0959 20.4774 12.0069 20.3504 11.9474Z" fill="#3A3B7B"></path>
      <path d="M24.8532 15.2754C24.8403 15.2912 24.8267 15.3074 24.8125 15.3244C24.7091 14.7515 24.6132 14.1787 24.5171 13.6051C24.4827 13.3993 24.448 13.1926 24.4132 12.9866L24.4093 12.9636L24.3966 12.9437C24.3726 12.9063 24.3702 12.8697 24.3702 12.7915V12.7825L24.3688 12.7735C24.3428 12.6121 24.2667 12.4618 24.1505 12.3424C24.0346 12.2234 23.884 12.1405 23.7184 12.1046C23.5531 12.0654 23.3794 12.0741 23.2192 12.1294C23.0593 12.1846 22.92 12.2838 22.8186 12.4145C22.7343 12.5148 22.6651 12.6261 22.6134 12.7451C22.4958 13.0012 22.3773 13.2581 22.2584 13.5156L22.2563 13.52C21.9595 14.1629 21.6606 14.8101 21.3705 15.4624L21.3696 15.4645C21.1915 15.8874 21.0445 16.3331 20.898 16.7774C20.8687 16.866 20.8394 16.9547 20.81 17.0431C20.7571 17.1833 20.7339 17.3322 20.7419 17.4811C20.7322 17.6143 20.7655 17.7473 20.8372 17.8619C20.9103 17.9789 21.0198 18.071 21.1502 18.1251C21.2884 18.1833 21.443 18.1957 21.5894 18.1602C21.7355 18.1249 21.8653 18.0439 21.9582 17.9302C22.0769 17.79 22.179 17.6371 22.2623 17.4752C22.5081 16.9927 22.743 16.5042 22.9768 16.0179C23.0673 15.8298 23.1552 15.6614 23.2552 15.4779C23.2621 15.5005 23.2691 15.5226 23.2764 15.5447C23.3812 15.9877 23.5581 16.4119 23.8006 16.802C23.8465 16.8846 23.9105 16.9568 23.9881 17.0137C24.0666 17.0712 24.1572 17.1116 24.2536 17.1321C24.35 17.1526 24.45 17.1527 24.5464 17.1324C24.6427 17.1121 24.7336 17.0717 24.8122 17.0144L24.9677 16.9027L26.1746 15.927L26.1032 16.3635C26.0052 16.9636 25.908 17.5586 25.8047 18.1538C25.7372 18.4176 25.7372 18.6931 25.805 18.9568C25.8344 19.1052 25.9091 19.2418 26.0198 19.3493C26.1314 19.4576 26.2743 19.5312 26.4301 19.5605C26.5858 19.5899 26.7471 19.5736 26.8931 19.5138C27.0369 19.455 27.1593 19.3565 27.2448 19.2311C27.4438 18.9941 27.5677 18.7072 27.6017 18.4046C27.6529 17.9772 27.7108 17.544 27.7687 17.1109C27.8354 16.6117 27.9021 16.1126 27.9584 15.6232L27.9586 15.6217C28.0128 15.0859 28.039 14.5479 28.0372 14.0095C28.0491 13.8394 28.0049 13.6699 27.9109 13.5251C27.8165 13.3798 27.6768 13.2668 27.5116 13.2021C27.3398 13.1272 27.1475 13.1071 26.963 13.145C26.7796 13.1826 26.6136 13.2754 26.4891 13.4098C26.2665 13.6074 26.0577 13.8188 25.864 14.0427L25.8627 14.0443C25.6512 14.2972 25.4412 14.5551 25.2325 14.8113C25.1056 14.967 24.9791 15.1224 24.8532 15.2754Z" fill="#3A3B7B"></path>
    </g>
    <defs>
      <clipPath id="clip0_211_2057">
        <rect width="32.7153" height="20.186" fill="white" transform="translate(-0.00878906 0.219727)"></rect>
      </clipPath>
    </defs>
  </symbol>
  <symbol fill="none" xmlns="http://www.w3.org/2000/svg" viewBox="0 0 29 20" id="client-logo 5">
    <g clip-path="url(#clip0_211_2073)">
      <path d="M26.8535 1.50308C26.8535 1.82744 27.1197 2.09039 27.4481 2.09039H28.0426C28.371 2.09039 28.6372 1.82744 28.6372 1.50308C28.6372 1.17872 28.371 0.915771 28.0426 0.915771H27.4481C27.1197 0.915771 26.8535 1.17872 26.8535 1.50308Z" fill="#212326"></path>
      <path d="M9.61158 19.7096H12.4999L11.659 18.8791C11.436 18.6588 11.1336 18.535 10.8182 18.535H9.61158C5.01445 18.535 1.28775 14.8538 1.28775 10.3127C1.28775 5.77164 5.01445 2.09039 9.61158 2.09039H19.1245C23.7217 2.09039 27.4484 5.77164 27.4484 10.3127C27.4484 14.8538 23.7217 18.535 19.1245 18.535H15.5659C15.0928 18.535 14.6392 18.3494 14.3047 18.019L13.3196 17.0459C12.7621 16.4952 12.0059 16.1858 11.2175 16.1858H9.61158C6.3279 16.1858 3.66599 13.5563 3.66599 10.3127C3.66599 7.06907 6.3279 4.43962 9.61158 4.43962H19.1245C22.4082 4.43962 25.0701 7.06907 25.0701 10.3127C25.0701 13.5563 22.4082 16.1858 19.1245 16.1858H16.8396C16.3665 16.1858 15.9128 16.0002 15.5783 15.6698L14.5932 14.6967C14.0357 14.146 13.2795 13.8366 12.4911 13.8366H9.61158C7.6414 13.8366 6.04423 12.2589 6.04423 10.3127C6.04423 8.36656 7.6414 6.78886 9.61158 6.78886H19.1245C21.0947 6.78886 22.6919 8.36656 22.6919 10.3127C22.6919 12.2351 21.1334 13.798 19.1964 13.8359L19.1961 13.8366H18.326C17.8529 13.8366 17.3992 13.6509 17.0647 13.3205L16.0796 12.3474C15.6221 11.8955 15.031 11.6062 14.3979 11.5168L14.3681 11.4873H9.61158C8.95486 11.4873 8.42246 10.9614 8.42246 10.3127C8.42246 9.66399 8.95486 9.13809 9.61158 9.13809H19.1245C19.7813 9.13809 20.3137 9.66399 20.3137 10.3127C20.3137 10.9614 19.7813 11.4873 19.1245 11.4873H16.7463L17.5871 12.3179C17.8101 12.5382 18.1126 12.6619 18.4279 12.6619H19.1245C20.438 12.6619 21.5028 11.6101 21.5028 10.3127C21.5028 9.01527 20.438 7.96347 19.1245 7.96347H9.61158C8.29813 7.96347 7.23335 9.01527 7.23335 10.3127C7.23335 11.6101 8.29813 12.6619 9.61158 12.6619H13.9775C14.4506 12.6619 14.9043 12.8476 15.2388 13.178L16.2239 14.1511C16.7814 14.7018 17.5375 15.0112 18.326 15.0112H19.4218V15.0022C21.9103 14.8506 23.881 12.809 23.881 10.3127C23.881 7.71784 21.7514 5.61424 19.1245 5.61424H9.61158C6.98468 5.61424 4.85511 7.71784 4.85511 10.3127C4.85511 12.9076 6.98468 15.0112 9.61158 15.0112H12.4911C12.9642 15.0112 13.4179 15.1968 13.7524 15.5272L14.7375 16.5003C15.295 17.051 16.0511 17.3604 16.8396 17.3604H19.1245C23.0649 17.3604 26.2592 14.2051 26.2592 10.3127C26.2592 6.42036 23.0649 3.26501 19.1245 3.26501H9.61158C5.67118 3.26501 2.47687 6.42036 2.47687 10.3127C2.47687 14.2051 5.67118 17.3604 9.61158 17.3604H11.2175C11.6905 17.3604 12.1442 17.546 12.4787 17.8764L13.4639 18.8495C14.0214 19.4003 14.7775 19.7096 15.5659 19.7096H19.1245C24.3784 19.7096 28.6375 15.5025 28.6375 10.3127C28.6375 5.12292 24.3784 0.915771 19.1245 0.915771L9.61158 0.915773C4.35772 0.915774 0.0986324 5.12293 0.0986328 10.3127C0.0986333 15.5025 4.35773 19.7096 9.61158 19.7096Z" fill="#212326"></path>
    </g>
    <defs>
      <clipPath id="clip0_211_2073">
        <rect width="28.5388" height="18.7939" fill="white" transform="translate(0.0986328 0.915771)"></rect>
      </clipPath>
    </defs>
  </symbol>
  <symbol fill="none" xmlns="http://www.w3.org/2000/svg" viewBox="0 0 38 14" id="client-logo 6">
    <g clip-path="url(#clip0_211_2077)">
      <path d="M9.53406 0.00396729C8.12053 0.00396729 6.76491 0.565487 5.7654 1.565L2.50342 4.82699C1.5039 5.8265 0.942383 7.18211 0.942383 8.59565C0.942383 11.5392 3.32857 13.9254 6.27209 13.9254C7.68563 13.9254 9.04124 13.3638 10.0408 12.3643L12.2971 10.108C12.2971 10.1079 12.2971 10.108 12.2971 10.108L18.8713 3.53378C19.3486 3.05642 19.9961 2.78825 20.6712 2.78825C21.8014 2.78825 22.7596 3.52488 23.0918 4.54423L25.1666 2.46943C24.2201 0.986975 22.5604 0.00396729 20.6712 0.00396729C19.2576 0.00396729 17.902 0.565487 16.9025 1.565L8.07199 10.3955C7.59463 10.8729 6.94719 11.1411 6.27209 11.1411C4.86628 11.1411 3.72666 10.0015 3.72666 8.59565C3.72666 7.92055 3.99484 7.27311 4.4722 6.79575L7.73416 3.53378C8.21153 3.05642 8.85897 2.78825 9.53406 2.78825C10.6643 2.78825 11.6225 3.52491 11.9547 4.54429L14.0296 2.46948C13.083 0.987003 11.4234 0.00396729 9.53406 0.00396729Z" fill="#394149"></path>
      <path d="M19.2092 10.3955C18.7319 10.8729 18.0844 11.1411 17.4093 11.1411C16.2792 11.1411 15.3211 10.4046 14.9888 9.38545L12.9141 11.4602C13.8606 12.9425 15.5202 13.9254 17.4093 13.9254C18.8229 13.9254 20.1785 13.3638 21.178 12.3643L30.0085 3.53378C30.4859 3.05642 31.1333 2.78825 31.8084 2.78825C33.2142 2.78825 34.3538 3.92787 34.3538 5.33368C34.3538 6.00877 34.0857 6.65621 33.6083 7.13358L30.3463 10.3955C29.869 10.8729 29.2215 11.1411 28.5464 11.1411C27.4163 11.1411 26.4581 10.4045 26.1258 9.38522L24.0511 11.46C24.9976 12.9424 26.6572 13.9254 28.5464 13.9254C29.96 13.9254 31.3156 13.3638 32.3151 12.3643L35.5771 9.10234C36.5766 8.10283 37.1381 6.74721 37.1381 5.33368C37.1381 2.39016 34.7519 0.00396729 31.8084 0.00396729C30.3949 0.00396729 29.0393 0.565487 28.0397 1.565L19.2092 10.3955Z" fill="#394149"></path>
    </g>
    <defs>
      <clipPath id="clip0_211_2077">
        <rect width="36.1956" height="13.9214" fill="white" transform="translate(0.942383 0.00396729)"></rect>
      </clipPath>
    </defs>
  </symbol>
  <symbol fill="none" xmlns="http://www.w3.org/2000/svg" viewBox="0 0 28 28" id="client-logo 1">
    <path fill-rule="evenodd" clip-rule="evenodd" d="M6.97925 0.149902C10.8235 0.149902 13.9399 3.26631 13.9399 7.1106V0.149902H20.9006C24.7449 0.149902 27.8613 3.26631 27.8613 7.1106C27.8613 10.9548 24.7449 14.0713 20.9006 14.0713C24.7449 14.0713 27.8613 17.1877 27.8613 21.032C27.8613 22.9408 27.0929 24.6702 25.8486 25.9277L25.8226 25.954L25.7995 25.9769C24.5417 27.223 22.8111 27.9927 20.9006 27.9927C19.0032 27.9927 17.2831 27.2335 16.0275 26.0023C16.0112 25.9863 15.9949 25.9701 15.9787 25.954C15.9634 25.9387 15.9482 25.9234 15.9331 25.908C14.7003 24.6522 13.9399 22.9309 13.9399 21.032C13.9399 24.8762 10.8235 27.9927 6.97925 27.9927C3.13496 27.9927 0.0185547 24.8762 0.0185547 21.032V14.0713H6.97925C3.13496 14.0713 0.0185547 10.9548 0.0185547 7.1106C0.0185547 3.26631 3.13496 0.149902 6.97925 0.149902ZM12.5478 7.1106C12.5478 10.186 10.0547 12.6792 6.97925 12.6792V1.54204C10.0547 1.54204 12.5478 4.03517 12.5478 7.1106ZM26.4692 21.032C26.4692 17.9565 23.9761 15.4634 20.9006 15.4634C17.8252 15.4634 15.3321 17.9565 15.3321 21.032H26.4692ZM1.41069 15.4634V21.032C1.41069 24.1074 3.90382 26.6005 6.97925 26.6005C10.0547 26.6005 12.5478 24.1074 12.5478 21.032V15.4634H1.41069ZM15.3321 12.6792V1.54204H20.9006C23.9761 1.54204 26.4692 4.03517 26.4692 7.1106C26.4692 10.186 23.9761 12.6792 20.9006 12.6792H15.3321Z" fill="#263238"></path>
  </symbol>
  <symbol fill="none" xmlns="http://www.w3.org/2000/svg" viewBox="0 0 28 20" id="client-logo 2">
    <path fill-rule="evenodd" clip-rule="evenodd" d="M6.98986 3.08379L0.0390625 9.9647C1.42935 11.341 3.01754 12.501 4.74911 13.4084C5.22773 14.6653 5.97795 15.8439 6.99976 16.8554C10.8441 20.6611 17.0769 20.6611 20.9211 16.8554C21.943 15.8439 22.6932 14.6653 23.1718 13.4084C24.9034 12.501 26.4916 11.341 27.8818 9.9647L20.9367 3.08938C20.9315 3.08424 20.9264 3.07909 20.9211 3.07396C17.0769 -0.731684 10.8441 -0.731684 6.99976 3.07396C6.99646 3.07724 6.99316 3.08051 6.98986 3.08379ZM20.2561 14.6499C18.2305 15.3266 16.1041 15.6732 13.9605 15.6732C11.8168 15.6732 9.69048 15.3266 7.66492 14.6499C7.88439 14.9381 8.12669 15.2147 8.3919 15.4773C11.4673 18.5218 16.4536 18.5218 19.529 15.4773C19.7942 15.2147 20.0366 14.9381 20.2561 14.6499ZM8.53466 4.31428C9.05692 4.65585 9.61225 4.94814 10.1933 5.18643C11.3876 5.67616 12.6677 5.92822 13.9605 5.92822C15.2532 5.92822 16.5333 5.67616 17.7276 5.18643C18.3087 4.94814 18.864 4.65585 19.3863 4.31427C16.3492 1.45353 11.5717 1.45354 8.53466 4.31428Z" fill="#3B4158"></path>
  </symbol>
</svg>