<svg width="29" height="20" viewBox="0 0 29 20" fill="none" xmlns="http://www.w3.org/2000/svg">
<g clip-path="url(#clip0_211_2073)">
<path d="M26.8535 1.50308C26.8535 1.82744 27.1197 2.09039 27.4481 2.09039H28.0426C28.371 2.09039 28.6372 1.82744 28.6372 1.50308C28.6372 1.17872 28.371 0.915771 28.0426 0.915771H27.4481C27.1197 0.915771 26.8535 1.17872 26.8535 1.50308Z" fill="#212326"/>
<path d="M9.61158 19.7096H12.4999L11.659 18.8791C11.436 18.6588 11.1336 18.535 10.8182 18.535H9.61158C5.01445 18.535 1.28775 14.8538 1.28775 10.3127C1.28775 5.77164 5.01445 2.09039 9.61158 2.09039H19.1245C23.7217 2.09039 27.4484 5.77164 27.4484 10.3127C27.4484 14.8538 23.7217 18.535 19.1245 18.535H15.5659C15.0928 18.535 14.6392 18.3494 14.3047 18.019L13.3196 17.0459C12.7621 16.4952 12.0059 16.1858 11.2175 16.1858H9.61158C6.3279 16.1858 3.66599 13.5563 3.66599 10.3127C3.66599 7.06907 6.3279 4.43962 9.61158 4.43962H19.1245C22.4082 4.43962 25.0701 7.06907 25.0701 10.3127C25.0701 13.5563 22.4082 16.1858 19.1245 16.1858H16.8396C16.3665 16.1858 15.9128 16.0002 15.5783 15.6698L14.5932 14.6967C14.0357 14.146 13.2795 13.8366 12.4911 13.8366H9.61158C7.6414 13.8366 6.04423 12.2589 6.04423 10.3127C6.04423 8.36656 7.6414 6.78886 9.61158 6.78886H19.1245C21.0947 6.78886 22.6919 8.36656 22.6919 10.3127C22.6919 12.2351 21.1334 13.798 19.1964 13.8359L19.1961 13.8366H18.326C17.8529 13.8366 17.3992 13.6509 17.0647 13.3205L16.0796 12.3474C15.6221 11.8955 15.031 11.6062 14.3979 11.5168L14.3681 11.4873H9.61158C8.95486 11.4873 8.42246 10.9614 8.42246 10.3127C8.42246 9.66399 8.95486 9.13809 9.61158 9.13809H19.1245C19.7813 9.13809 20.3137 9.66399 20.3137 10.3127C20.3137 10.9614 19.7813 11.4873 19.1245 11.4873H16.7463L17.5871 12.3179C17.8101 12.5382 18.1126 12.6619 18.4279 12.6619H19.1245C20.438 12.6619 21.5028 11.6101 21.5028 10.3127C21.5028 9.01527 20.438 7.96347 19.1245 7.96347H9.61158C8.29813 7.96347 7.23335 9.01527 7.23335 10.3127C7.23335 11.6101 8.29813 12.6619 9.61158 12.6619H13.9775C14.4506 12.6619 14.9043 12.8476 15.2388 13.178L16.2239 14.1511C16.7814 14.7018 17.5375 15.0112 18.326 15.0112H19.4218V15.0022C21.9103 14.8506 23.881 12.809 23.881 10.3127C23.881 7.71784 21.7514 5.61424 19.1245 5.61424H9.61158C6.98468 5.61424 4.85511 7.71784 4.85511 10.3127C4.85511 12.9076 6.98468 15.0112 9.61158 15.0112H12.4911C12.9642 15.0112 13.4179 15.1968 13.7524 15.5272L14.7375 16.5003C15.295 17.051 16.0511 17.3604 16.8396 17.3604H19.1245C23.0649 17.3604 26.2592 14.2051 26.2592 10.3127C26.2592 6.42036 23.0649 3.26501 19.1245 3.26501H9.61158C5.67118 3.26501 2.47687 6.42036 2.47687 10.3127C2.47687 14.2051 5.67118 17.3604 9.61158 17.3604H11.2175C11.6905 17.3604 12.1442 17.546 12.4787 17.8764L13.4639 18.8495C14.0214 19.4003 14.7775 19.7096 15.5659 19.7096H19.1245C24.3784 19.7096 28.6375 15.5025 28.6375 10.3127C28.6375 5.12292 24.3784 0.915771 19.1245 0.915771L9.61158 0.915773C4.35772 0.915774 0.0986324 5.12293 0.0986328 10.3127C0.0986333 15.5025 4.35773 19.7096 9.61158 19.7096Z" fill="#212326"/>
</g>
<defs>
<clipPath id="clip0_211_2073">
<rect width="28.5388" height="18.7939" fill="white" transform="translate(0.0986328 0.915771)"/>
</clipPath>
</defs>
</svg>
