<svg width="28" height="20" viewBox="0 0 28 20" fill="none" xmlns="http://www.w3.org/2000/svg">
<path fill-rule="evenodd" clip-rule="evenodd" d="M6.98986 3.08379L0.0390625 9.9647C1.42935 11.341 3.01754 12.501 4.74911 13.4084C5.22773 14.6653 5.97795 15.8439 6.99976 16.8554C10.8441 20.6611 17.0769 20.6611 20.9211 16.8554C21.943 15.8439 22.6932 14.6653 23.1718 13.4084C24.9034 12.501 26.4916 11.341 27.8818 9.9647L20.9367 3.08938C20.9315 3.08424 20.9264 3.07909 20.9211 3.07396C17.0769 -0.731684 10.8441 -0.731684 6.99976 3.07396C6.99646 3.07724 6.99316 3.08051 6.98986 3.08379ZM20.2561 14.6499C18.2305 15.3266 16.1041 15.6732 13.9605 15.6732C11.8168 15.6732 9.69048 15.3266 7.66492 14.6499C7.88439 14.9381 8.12669 15.2147 8.3919 15.4773C11.4673 18.5218 16.4536 18.5218 19.529 15.4773C19.7942 15.2147 20.0366 14.9381 20.2561 14.6499ZM8.53466 4.31428C9.05692 4.65585 9.61225 4.94814 10.1933 5.18643C11.3876 5.67616 12.6677 5.92822 13.9605 5.92822C15.2532 5.92822 16.5333 5.67616 17.7276 5.18643C18.3087 4.94814 18.864 4.65585 19.3863 4.31427C16.3492 1.45353 11.5717 1.45354 8.53466 4.31428Z" fill="#3B4158"/>
</svg>
