<svg width="24" height="22" viewBox="0 0 24 22" fill="none" xmlns="http://www.w3.org/2000/svg">
<path d="M15.1288 10.8912C14.9612 10.8912 14.8055 10.8451 14.6673 10.771V10.773C14.6673 11.0367 14.5648 11.2843 14.3788 11.4698C14.1929 11.6558 13.9454 11.7583 13.682 11.7583C13.512 11.7583 13.3544 11.711 13.2146 11.6349C13.2005 11.8762 13.1041 12.1016 12.9321 12.2739C12.7461 12.4598 12.4986 12.5623 12.2351 12.5623C11.7114 12.5623 11.2862 12.1507 11.2556 11.6348C11.0935 11.7223 10.9103 11.7683 10.7214 11.7561C10.2063 11.7223 9.80289 11.2773 9.80289 10.7426V6.311L9.29827 7.18524C9.10607 7.51961 8.74629 7.72722 8.35892 7.72722C8.17016 7.72722 7.9837 7.6777 7.81857 7.58307C7.61292 7.46385 7.46582 7.27247 7.40465 7.04352C7.34315 6.81442 7.37496 6.57483 7.49386 6.3695C7.49402 6.3695 9.14493 3.5106 9.24564 3.33499C9.25762 3.30859 9.29173 3.23201 9.32076 3.16674C9.34847 3.10442 9.37225 3.04046 9.39504 2.97618C9.89291 1.57062 11.1257 0.697514 12.6124 0.697514C14.5431 0.697514 16.1138 2.40073 16.1138 4.49429L16.114 9.90578C16.114 10.1692 16.0116 10.4166 15.8258 10.6028C15.6399 10.7887 15.3924 10.8912 15.1287 10.8912L15.1288 10.8912ZM12.6124 1.22106C11.3349 1.22106 10.3167 1.94265 9.88852 3.15127C9.86113 3.22801 9.8326 3.30476 9.7993 3.37954C9.70271 3.59618 9.70271 3.59618 9.67549 3.62733L9.67188 3.62422C9.53708 3.87857 9.13661 4.57209 7.94718 6.63152C7.8983 6.71598 7.88535 6.81405 7.91028 6.90785C7.93553 7.00165 7.99605 7.0807 8.07985 7.12907C8.33994 7.27847 8.69614 7.18204 8.84438 6.92375L9.83801 5.20345C9.89738 5.10096 10.0174 5.05061 10.1325 5.08177C10.247 5.11244 10.3265 5.21625 10.3265 5.33465V10.7428C10.3265 10.998 10.5191 11.2182 10.7557 11.2338C10.8922 11.241 11.0194 11.1952 11.115 11.0998C11.202 11.0129 11.2498 10.8971 11.2498 10.7733V7.23628C11.2498 7.09164 11.3671 6.97438 11.5117 6.97438C11.6564 6.97438 11.7736 7.09148 11.7736 7.23628L11.7735 11.5772C11.7735 11.8317 11.9806 12.0389 12.2351 12.0389C12.3588 12.0389 12.4749 11.991 12.5619 11.9041C12.6489 11.817 12.6967 11.7009 12.6967 11.5772V7.23628C12.6967 7.09164 12.8138 6.97438 12.9586 6.97438C13.1033 6.97438 13.2205 7.09147 13.2205 7.23628L13.2204 10.7326V10.7733C13.2204 11.0276 13.4275 11.2347 13.6822 11.2347C13.8057 11.2347 13.9214 11.1867 14.009 11.0994C14.0959 11.0127 14.1438 10.8969 14.1438 10.7731V7.23609C14.1438 7.09145 14.2609 6.9742 14.4057 6.9742C14.5504 6.9742 14.6676 7.09129 14.6676 7.23609L14.6673 9.9059C14.6673 10.1606 14.8744 10.3677 15.1287 10.3677C15.2526 10.3677 15.3683 10.3197 15.4553 10.2329C15.5425 10.1457 15.5902 10.0296 15.5902 9.9059L15.5904 4.49441C15.5904 2.68969 14.2545 1.22111 12.6124 1.22111L12.6124 1.22106Z" fill="#103E13"/>
<path d="M4.83859 14.6523L8.63893 12.3725C9.09712 12.0973 9.68668 12.2142 9.98055 12.6388C10.0878 12.7934 10.1426 12.9737 10.1511 13.1572C10.2928 13.0832 10.4469 13.0431 10.6039 13.0431C10.6842 13.0431 10.7649 13.0531 10.8446 13.0729C11.1 13.1367 11.3151 13.2963 11.4504 13.5219C11.5859 13.7479 11.6254 14.0127 11.5616 14.2678C11.5027 14.5037 11.3592 14.7024 11.1597 14.8386C11.2992 14.921 11.4196 15.0333 11.5052 15.1763C11.6407 15.4023 11.6802 15.667 11.6165 15.9223C11.5528 16.1773 11.3932 16.3925 11.1672 16.5281L11.1659 16.5289C11.303 16.6111 11.4212 16.7223 11.5059 16.8631C11.6415 17.0891 11.681 17.354 11.6172 17.6093C11.5533 17.8645 11.3937 18.0796 11.168 18.2151L6.52776 20.9989C5.66172 21.5182 4.66053 21.6975 3.70905 21.5032C2.74904 21.307 1.95398 20.7552 1.47056 19.9493C0.705522 18.6743 0.820175 17.1679 1.76919 16.0181C1.81265 15.9656 1.85545 15.9122 1.89432 15.8567C1.93548 15.7982 1.98353 15.7293 1.99993 15.7057C2.09816 15.5302 3.70104 12.6423 3.70088 12.6426C3.86274 12.3506 4.16612 12.1852 4.47901 12.1854C4.62497 12.1854 4.77305 12.2213 4.90967 12.2971C5.07464 12.3892 5.21322 12.5236 5.31014 12.6854C5.50939 13.0175 5.51644 13.4331 5.32883 13.7694L4.83859 14.6523ZM4.86138 12.9546C4.81055 12.8699 4.74068 12.8023 4.65524 12.7544C4.47862 12.6567 4.25625 12.7203 4.15901 12.8963C3.01206 14.9626 2.62109 15.6667 2.4702 15.9173L2.47365 15.9182C2.46102 15.9601 2.46102 15.9601 2.32294 16.1574C2.27604 16.2242 2.22504 16.2883 2.17305 16.3514C1.357 17.3401 1.26225 18.5844 1.91935 19.68C2.32638 20.3586 2.99909 20.8238 3.81362 20.9901C4.63702 21.1575 5.50487 21.0017 6.25812 20.5498L10.8988 17.7659C11.0048 17.7024 11.0795 17.6016 11.1094 17.482C11.1392 17.3626 11.1207 17.2385 11.0571 17.1325C10.9262 16.9144 10.642 16.8428 10.4239 16.9741L8.13457 18.3476C8.01059 18.422 7.84955 18.382 7.77526 18.2579C7.70081 18.1339 7.74098 17.973 7.86496 17.8986L10.1545 16.5251L10.898 16.0791C11.0039 16.0154 11.0789 15.9146 11.1087 15.7954C11.1386 15.6758 11.12 15.5515 11.0564 15.4457C10.9254 15.2274 10.6412 15.1564 10.4232 15.2873L7.3902 17.1068C7.2659 17.1814 7.10535 17.1411 7.0309 17.0171C6.95644 16.8931 6.99679 16.7323 7.1206 16.6578L10.8431 14.4247C10.949 14.3611 11.0238 14.2604 11.0536 14.1409C11.0835 14.0215 11.0649 13.8973 11.0015 13.7914C10.938 13.6856 10.8372 13.6108 10.7176 13.581C10.5974 13.5511 10.4738 13.5697 10.3681 13.633L9.67905 14.0464C9.67889 14.0464 9.67889 14.0466 9.67872 14.0466H9.67856L6.64569 15.8661C6.52138 15.9409 6.36067 15.9005 6.28638 15.7764C6.21193 15.6524 6.25227 15.4915 6.37608 15.4171L9.40912 13.5976C9.51506 13.5339 9.59 13.4331 9.61985 13.3139C9.65265 13.183 9.62772 13.0492 9.54999 12.937C9.41519 12.742 9.12689 12.6902 8.90829 12.8215L4.27095 15.6035C4.16944 15.6642 4.0394 15.6494 3.95428 15.5673C3.86901 15.485 3.84982 15.3556 3.90722 15.2521L4.8715 13.5147C4.96826 13.3411 4.96448 13.1266 4.86133 12.9547L4.86138 12.9546Z" fill="#103E13"/>
<path d="M22.998 19.9492C22.5147 20.7552 21.7199 21.3069 20.7597 21.503C19.8081 21.697 18.8072 21.5181 17.941 20.9987L13.3003 18.2148C13.0745 18.0793 12.9148 17.8642 12.8508 17.6087C12.7873 17.3537 12.827 17.0888 12.9623 16.8631C13.0468 16.7221 13.1652 16.6109 13.3024 16.5288L13.3011 16.528C13.0753 16.3925 12.9156 16.1773 12.852 15.9221C12.788 15.667 12.8277 15.4019 12.9631 15.176C13.0504 15.0309 13.1699 14.9174 13.3064 14.8369C13.1083 14.7006 12.9656 14.5027 12.9069 14.2678C12.8429 14.0125 12.8826 13.7476 13.0181 13.5219C13.1534 13.2961 13.3687 13.1366 13.6239 13.0728C13.7036 13.0528 13.7844 13.0429 13.8645 13.0429C14.0216 13.0431 14.1757 13.0829 14.3174 13.1571C14.3261 12.9736 14.3807 12.7933 14.488 12.6387C14.782 12.2144 15.371 12.097 15.8299 12.3724L19.6301 14.6519L19.1403 13.7696C18.9523 13.4327 18.9592 13.0172 19.1585 12.6849C19.2556 12.5232 19.3943 12.3889 19.5601 12.2959C19.6964 12.2205 19.844 12.1847 19.9896 12.1847C20.3023 12.1849 20.606 12.3499 20.7677 12.642C21.3312 13.6573 22.3945 15.572 22.4693 15.7057C22.4852 15.7288 22.5332 15.7977 22.5744 15.8562C22.6136 15.9118 22.6559 15.965 22.6997 16.0178C23.6486 17.168 23.763 18.6743 22.998 19.9492L22.998 19.9492ZM22.2957 16.3515C22.2435 16.2884 22.1924 16.2239 22.1458 16.1575C22.0041 15.9565 22.0005 15.9512 21.9898 15.8986C21.8242 15.6245 21.4201 14.8971 20.3094 12.896C20.212 12.7204 19.9906 12.6563 19.8143 12.7537C19.7276 12.8022 19.6579 12.8699 19.607 12.9547C19.504 13.1264 19.5001 13.3409 19.5974 13.5151L20.5613 15.2519C20.6189 15.3556 20.5997 15.4848 20.5146 15.5671C20.4296 15.6496 20.2997 15.664 20.1977 15.6034L15.5604 12.8214C15.3418 12.6904 15.0537 12.7417 14.9185 12.9368C14.8408 13.049 14.816 13.1828 14.8485 13.3135C14.8784 13.4329 14.9533 13.5336 15.0594 13.5972C15.0597 13.5974 15.0599 13.5977 15.0602 13.5979L18.0923 15.4169C18.2163 15.4913 18.2564 15.6521 18.182 15.7762C18.1075 15.9 17.947 15.9405 17.8227 15.8659L14.1002 13.6328C13.9946 13.5695 13.8703 13.5508 13.7509 13.5808C13.6312 13.6107 13.5305 13.6855 13.467 13.7916C13.4034 13.8974 13.385 14.0215 13.4146 14.1409C13.4444 14.2603 13.5194 14.3611 13.6253 14.4248L14.3497 14.8592L17.3476 16.6579C17.4716 16.7323 17.5118 16.893 17.4373 17.0172C17.3628 17.141 17.2023 17.1813 17.078 17.1069L14.0453 15.2874C13.8272 15.1562 13.5431 15.2273 13.4119 15.4458C13.3483 15.5517 13.33 15.6759 13.3595 15.7953C13.3893 15.9146 13.4643 16.0153 13.5704 16.0791L14.3139 16.5252L16.6031 17.8986C16.727 17.9731 16.7672 18.1338 16.6928 18.2579C16.6183 18.3817 16.4578 18.4224 16.3335 18.3476L14.0443 16.9742C13.9387 16.9109 13.8149 16.8922 13.6948 16.9222C13.5754 16.9521 13.4744 17.0268 13.411 17.1326C13.3475 17.2385 13.329 17.3629 13.3585 17.4821C13.3883 17.6015 13.4633 17.7022 13.5694 17.7659L18.2101 20.5499C18.9632 21.0017 19.8316 21.1581 20.6546 20.9902C21.4689 20.8239 22.1417 20.3586 22.5487 19.68C23.2064 18.5842 23.1118 17.3399 22.296 16.3515L22.2957 16.3515Z" fill="#103E13"/>
</svg>
