<svg width="134" height="22" viewBox="0 0 134 22" fill="none" xmlns="http://www.w3.org/2000/svg">
<path d="M17.0185 12.0322L12.3793 19.9777L7.74004 12.0322H17.0185ZM18.2614 11.322H6.49219L12.3793 21.3831L18.2614 11.322Z" fill="#000"/>
<path d="M25.0844 2.14975L29.7236 10.0953H20.4451L25.0844 2.14975ZM25.0844 0.729492L19.1973 10.7905H30.9715L25.0844 0.729492Z" fill="#000"/>
<path d="M0.851562 0.729492L5.78769 9.62848L11.1817 0.952948L0.851562 0.729492Z" fill="#4CAF4F"/>
<path d="M12.3791 1.50903L17.5568 10.3584H7.19141L12.3791 1.50903Z" fill="#4CAF4F"/>
<path d="M18.8902 12.2904L24.0728 21.3831H13.4609L18.7291 12.2904H18.8902Z" fill="#4CAF4F"/>
<path d="M20.0127 11.7391L25.0847 20.6927L30.2271 11.7391H20.0127Z" fill="#4CAF4F"/>
<path d="M52.5142 2.16577V19.69H49.314L41.6899 8.66036H41.5615V19.69H37.8564V2.16577H41.108L48.6722 13.1869H48.8262V2.16577H52.5142Z" fill="#4d4d4d"/>
<path d="M61.4967 19.9467C60.1447 19.9467 58.981 19.6729 58.0055 19.1253C57.0357 18.5719 56.2884 17.7904 55.7636 16.7807C55.2388 15.7653 54.9764 14.5645 54.9764 13.1783C54.9764 11.8264 55.2388 10.6398 55.7636 9.61872C56.2884 8.59761 57.0272 7.80183 57.9798 7.23138C58.9382 6.66093 60.062 6.3757 61.3512 6.3757C62.2183 6.3757 63.0255 6.51546 63.7728 6.79498C64.5258 7.0688 65.1818 7.48238 65.7408 8.03572C66.3056 8.58905 66.7448 9.285 67.0586 10.1236C67.3723 10.9564 67.5292 11.9319 67.5292 13.05V14.0511H56.4311V11.7921H64.0979C64.0979 11.2673 63.9838 10.8024 63.7556 10.3974C63.5275 9.99236 63.2109 9.67576 62.8058 9.44758C62.4065 9.2137 61.9416 9.09676 61.4111 9.09676C60.8578 9.09676 60.3672 9.22511 59.9393 9.48181C59.5172 9.73281 59.1863 10.0722 58.9467 10.5001C58.7072 10.9222 58.5845 11.3928 58.5788 11.9119V14.0597C58.5788 14.71 58.6986 15.2719 58.9382 15.7454C59.1835 16.2188 59.5286 16.5839 59.9736 16.8406C60.4185 17.0973 60.9462 17.2257 61.5566 17.2257C61.9616 17.2257 62.3324 17.1686 62.6689 17.0545C63.0055 16.9405 63.2936 16.7693 63.5332 16.5411C63.7728 16.313 63.9553 16.0334 64.0808 15.7026L67.4522 15.9251C67.281 16.7351 66.9302 17.4425 66.3997 18.0471C65.8749 18.6461 65.196 19.1139 64.3632 19.4504C63.536 19.7813 62.5805 19.9467 61.4967 19.9467Z" fill="#4d4d4d"/>
<path d="M72.7189 6.54684L75.1319 11.1418L77.6048 6.54684H81.3441L77.5363 13.1184L81.4468 19.69H77.7246L75.1319 15.1464L72.582 19.69H68.817L72.7189 13.1184L68.9539 6.54684H72.7189Z" fill="#4d4d4d"/>
<path d="M88.9767 19.9467C87.6305 19.9467 86.4724 19.6615 85.5027 19.0911C84.5386 18.5149 83.797 17.7163 83.2779 16.6952C82.7645 15.6741 82.5078 14.4989 82.5078 13.1698C82.5078 11.8235 82.7674 10.6427 83.2865 9.62727C83.8113 8.60617 84.5557 7.81039 85.5198 7.23993C86.4839 6.66378 87.6305 6.3757 88.9596 6.3757C90.1062 6.3757 91.1102 6.58392 91.9716 7.00035C92.833 7.41678 93.5147 8.00149 94.0167 8.75448C94.5187 9.50748 94.7953 10.3917 94.8467 11.4071H91.4068C91.3099 10.7511 91.0532 10.2234 90.6367 9.82408C90.226 9.41906 89.6869 9.21655 89.0195 9.21655C88.4548 9.21655 87.9613 9.37057 87.5392 9.67861C87.1228 9.98095 86.7976 10.4231 86.5637 11.0049C86.3298 11.5868 86.2129 12.2913 86.2129 13.1184C86.2129 13.957 86.327 14.6701 86.5552 15.2576C86.789 15.8452 87.1171 16.293 87.5392 16.601C87.9613 16.9091 88.4548 17.0631 89.0195 17.0631C89.4359 17.0631 89.8096 16.9775 90.1404 16.8064C90.477 16.6353 90.7537 16.3871 90.9704 16.062C91.1929 15.7311 91.3384 15.3346 91.4068 14.8726H94.8467C94.7896 15.8766 94.5158 16.7608 94.0252 17.5252C93.5403 18.2839 92.8701 18.8771 92.0144 19.305C91.1587 19.7328 90.1461 19.9467 88.9767 19.9467Z" fill="#4d4d4d"/>
<path d="M103.17 19.9467C101.818 19.9467 100.655 19.6729 99.6791 19.1253C98.7093 18.5719 97.962 17.7904 97.4372 16.7807C96.9124 15.7653 96.65 14.5645 96.65 13.1783C96.65 11.8264 96.9124 10.6398 97.4372 9.61872C97.962 8.59761 98.7008 7.80183 99.6534 7.23138C100.612 6.66093 101.736 6.3757 103.025 6.3757C103.892 6.3757 104.699 6.51546 105.446 6.79498C106.199 7.0688 106.855 7.48238 107.414 8.03572C107.979 8.58905 108.418 9.285 108.732 10.1236C109.046 10.9564 109.203 11.9319 109.203 13.05V14.0511H98.1047V11.7921H105.772C105.772 11.2673 105.657 10.8024 105.429 10.3974C105.201 9.99236 104.884 9.67576 104.479 9.44758C104.08 9.2137 103.615 9.09676 103.085 9.09676C102.531 9.09676 102.041 9.22511 101.613 9.48181C101.191 9.73281 100.86 10.0722 100.62 10.5001C100.381 10.9222 100.258 11.3928 100.252 11.9119V14.0597C100.252 14.71 100.372 15.2719 100.612 15.7454C100.857 16.2188 101.202 16.5839 101.647 16.8406C102.092 17.0973 102.62 17.2257 103.23 17.2257C103.635 17.2257 104.006 17.1686 104.343 17.0545C104.679 16.9405 104.967 16.7693 105.207 16.5411C105.446 16.313 105.629 16.0334 105.754 15.7026L109.126 15.9251C108.955 16.7351 108.604 17.4425 108.073 18.0471C107.548 18.6461 106.87 19.1139 106.037 19.4504C105.21 19.7813 104.254 19.9467 103.17 19.9467Z" fill="#4d4d4d"/>
<path d="M115.227 12.0916V19.69H111.582V6.54684H115.056V8.86572H115.21C115.501 8.10132 115.988 7.49664 116.673 7.05169C117.357 6.60103 118.187 6.3757 119.163 6.3757C120.076 6.3757 120.871 6.57536 121.55 6.97468C122.229 7.37399 122.757 7.94444 123.133 8.68603C123.51 9.42191 123.698 10.3004 123.698 11.3215V19.69H120.053V11.9718C120.058 11.1675 119.853 10.54 119.437 10.0893C119.02 9.63298 118.447 9.4048 117.717 9.4048C117.226 9.4048 116.793 9.51033 116.416 9.7214C116.045 9.93247 115.754 10.2405 115.543 10.6455C115.338 11.0448 115.232 11.5269 115.227 12.0916Z" fill="#4d4d4d"/>
<path d="M133.562 6.54684V9.285H125.647V6.54684H133.562ZM127.444 3.39795H131.089V15.6512C131.089 15.9878 131.14 16.2502 131.243 16.4385C131.346 16.621 131.488 16.7494 131.671 16.8235C131.859 16.8977 132.076 16.9348 132.321 16.9348C132.492 16.9348 132.663 16.9205 132.834 16.892C133.006 16.8577 133.137 16.8321 133.228 16.815L133.801 19.5275C133.619 19.5845 133.362 19.6501 133.031 19.7243C132.7 19.8041 132.298 19.8526 131.825 19.8697C130.946 19.904 130.176 19.787 129.514 19.5189C128.858 19.2508 128.348 18.8344 127.983 18.2696C127.618 17.7049 127.438 16.9918 127.444 16.1304V3.39795Z" fill="#4d4d4d"/> 
</svg>
