<svg width="43" height="28" viewBox="0 0 43 28" fill="none" xmlns="http://www.w3.org/2000/svg">
<g filter="url(#filter0_d_211_2094)">
<path d="M21.3725 0.393555C18.8867 0.393555 16.863 2.43574 16.863 4.93217C16.863 6.51143 17.6739 7.90586 18.8985 8.71865C17.4195 9.2132 16.1397 10.1375 15.201 11.3467C14.682 10.9475 14.1022 10.6265 13.477 10.3964C14.425 9.69266 15.0445 8.56217 15.0445 7.29159C15.0445 5.17432 13.3321 3.44108 11.2276 3.44108C9.12321 3.44108 7.41083 5.17432 7.41083 7.29159C7.41083 8.5629 8.03081 9.69391 8.97956 10.3977C6.46774 11.3246 4.67383 13.7513 4.67383 16.6073V18.6135C4.67409 18.7664 4.73526 18.9129 4.84373 19.0206C4.9522 19.1286 5.09897 19.1887 5.25191 19.1882H14.0537C14.075 19.1905 14.0964 19.1918 14.1177 19.1916H28.6278C28.6492 19.1918 28.6708 19.1905 28.6919 19.1882H37.4943C37.8107 19.1869 38.067 18.9301 38.0677 18.6135V16.6073C38.0677 13.7513 36.2769 11.3246 33.7664 10.3974C34.7152 9.69391 35.3352 8.56263 35.3352 7.29132C35.3352 5.17406 33.6228 3.44081 31.5183 3.44081C29.414 3.44081 27.7015 5.17406 27.7015 7.29132C27.7015 8.56191 28.3212 9.6926 29.2692 10.3962C28.6428 10.6267 28.0626 10.9488 27.5429 11.349C26.6047 10.1391 25.3267 9.21349 23.8477 8.71865C25.072 7.90586 25.8832 6.51143 25.8832 4.93217C25.8832 2.43574 23.8585 0.393555 21.3727 0.393555H21.3725ZM21.3725 1.5451C23.2317 1.5451 24.7305 3.05396 24.7305 4.93217C24.7305 6.7957 23.2551 8.28988 21.4165 8.31383C21.4018 8.31383 21.3874 8.31178 21.3725 8.31178C21.3576 8.31178 21.3435 8.31383 21.3286 8.31383C19.49 8.29018 18.0155 6.79576 18.0155 4.93217C18.0155 3.05369 19.5131 1.5451 21.3723 1.5451H21.3725ZM11.2277 4.59256C12.7029 4.59256 13.893 5.78984 13.893 7.29152C13.893 8.78314 12.7183 9.97529 11.257 9.99147C11.2472 9.99147 11.2377 9.99045 11.2277 9.99045C11.2179 9.99045 11.2084 9.99147 11.1984 9.99147C9.73711 9.97528 8.5624 8.78288 8.5624 7.29152C8.5624 5.7899 9.75251 4.59256 11.2277 4.59256H11.2277ZM31.518 4.59256C32.9932 4.59256 34.1833 5.78984 34.1833 7.29152C34.1833 8.78314 33.0085 9.97529 31.5473 9.99147C31.5375 9.99147 31.528 9.99045 31.518 9.99045C31.5082 9.99045 31.4987 9.99147 31.4887 9.99147C30.0274 9.97528 28.8527 8.78288 28.8527 7.29152C28.8527 5.7899 30.0428 4.59256 31.5179 4.59256H31.518ZM21.3284 9.46532C21.3431 9.46557 21.3575 9.46737 21.3724 9.46737C21.387 9.46737 21.4014 9.46532 21.4163 9.46532C25.1036 9.48896 28.0545 12.4653 28.0545 16.191L28.0543 18.0397H14.691V16.191C14.691 12.4649 17.6411 9.489 21.3279 9.46532H21.3284ZM11.1836 11.1443C11.1983 11.1446 11.2127 11.1464 11.2276 11.1464C11.2425 11.1464 11.2566 11.1443 11.2715 11.1443C12.5187 11.1544 13.6569 11.5844 14.5632 12.3038C13.9147 13.4513 13.5396 14.7758 13.5396 16.1913V18.0356H5.82491V16.6072C5.82491 13.5792 8.20565 11.168 11.1835 11.1441L11.1836 11.1443ZM31.4739 11.1443C31.4888 11.1446 31.5029 11.1464 31.5179 11.1464C31.5328 11.1464 31.5469 11.1443 31.5618 11.1443C34.5396 11.168 36.9204 13.5796 36.9204 16.6075V18.0356H29.2017L29.2015 16.1913C29.2015 14.7766 28.8275 13.4531 28.1802 12.3059C29.0868 11.5854 30.2258 11.1543 31.474 11.1443H31.4739Z" fill="#103E13"/>
<path d="M19.0571 9.19285L20.028 8.8682L19.175 8.30206C18.0837 7.5777 17.363 6.33641 17.363 4.93217C17.363 2.70846 19.1662 0.893555 21.3725 0.893555H21.3727C23.5791 0.893555 25.3832 2.70861 25.3832 4.93217C25.3832 6.33635 24.6623 7.57769 23.5712 8.3021L22.7186 8.86812L23.6891 9.19282C25.072 9.6555 26.2685 10.5215 27.1478 11.6554L27.4532 12.0492L27.848 11.7451C28.3278 11.3757 28.8634 11.0783 29.4419 10.8654L30.3099 10.5459L29.5672 9.99466C28.7399 9.38067 28.2015 8.39585 28.2015 7.29133C28.2015 5.44557 29.6947 3.94081 31.5183 3.94081C33.342 3.94081 34.8352 5.44556 34.8352 7.29133C34.8352 8.39661 34.2965 9.38192 33.4686 9.99578L32.7262 10.5463L33.5932 10.8664C35.9118 11.7227 37.5677 13.9654 37.5677 16.6073L37.5677 18.6123C37.5677 18.6125 37.5677 18.6127 37.5677 18.6129C37.5673 18.6545 37.5336 18.6878 37.4928 18.6882H28.6919H28.6645L28.6373 18.6912C28.6354 18.6914 28.634 18.6915 28.6333 18.6916H28.6278H14.1177V18.6915L14.1127 18.6916C14.1121 18.6915 14.1104 18.6914 14.1076 18.6911L14.0807 18.6882H14.0537L5.25191 18.6882L5.25023 18.6882C5.22978 18.6883 5.21059 18.6803 5.19644 18.6662L5.19602 18.6658C5.18191 18.6518 5.17392 18.6327 5.17383 18.6129V16.6073C5.17383 13.9658 6.83246 11.7229 9.15266 10.8668L10.0198 10.5468L9.27745 9.99609C8.44947 9.38192 7.91083 8.39682 7.91083 7.29159C7.91083 5.44582 9.40397 3.94108 11.2276 3.94108C13.0513 3.94108 14.5445 5.44582 14.5445 7.29159C14.5445 8.39614 14.0063 9.38079 13.179 9.99496L12.4364 10.5463L13.3044 10.8657C13.8819 11.0782 14.4173 11.3746 14.8962 11.743L15.2907 12.0465L15.596 11.6533C16.4755 10.5203 17.6738 9.65539 19.0571 9.19285ZM21.4165 8.81383V8.81388L21.423 8.81379C23.5374 8.78624 25.2305 7.06703 25.2305 4.93217C25.2305 2.78161 23.5116 1.0451 21.3725 1.0451H21.3723C19.2329 1.0451 17.5155 2.78156 17.5155 4.93217C17.5155 7.06683 19.2074 8.78659 21.3221 8.81379V8.81383H21.3286C21.3436 8.81383 21.3565 8.81332 21.366 8.81282L21.3726 8.8124L21.3791 8.81281C21.3884 8.8133 21.4013 8.81383 21.4165 8.81383ZM11.257 10.4915V10.4915L11.2625 10.4914C13.0025 10.4722 14.393 9.05239 14.393 7.29152C14.393 5.51868 12.984 4.09256 11.2277 4.09256H11.2277C9.4714 4.09256 8.0624 5.51875 8.0624 7.29152C8.0624 9.0521 9.45287 10.4722 11.1929 10.4914L11.1929 10.4915H11.1984C11.2093 10.4915 11.2187 10.4912 11.2255 10.4909L11.2278 10.4908L11.2298 10.4909C11.2365 10.4912 11.2459 10.4915 11.257 10.4915ZM31.5473 10.4915V10.4915L31.5528 10.4914C33.2928 10.4722 34.6833 9.05239 34.6833 7.29152C34.6833 5.51868 33.2743 4.09256 31.518 4.09256H31.5179C29.7617 4.09256 28.3527 5.51875 28.3527 7.29152C28.3527 9.0521 29.7431 10.4722 31.4831 10.4914V10.4915H31.4887C31.4996 10.4915 31.5089 10.4912 31.5157 10.4909L31.518 10.4908L31.5201 10.4909C31.5268 10.4912 31.5362 10.4915 31.5473 10.4915ZM21.3372 8.96539L21.3372 8.96532H21.3284L21.3279 8.96531L21.3247 8.96533C17.3605 8.9908 14.191 12.1926 14.191 16.191V18.0397V18.5397H14.691H28.0543H28.5542L28.5543 18.0397L28.5545 16.1911V16.191C28.5545 12.1929 25.3842 8.99075 21.4195 8.96532H21.4163C21.4013 8.96532 21.3884 8.96583 21.3791 8.96632L21.3716 8.96679L21.3675 8.96653C21.36 8.96611 21.3495 8.96561 21.3372 8.96539ZM11.4914 10.65L11.4871 10.6416L11.1795 10.6441C7.92273 10.6702 5.32491 13.309 5.32491 16.6072V18.0356V18.5356H5.82491H13.5396H14.0396V18.0356V16.1913C14.0396 14.8654 14.3907 13.6253 14.9985 12.5499L15.2087 12.1779L14.8741 11.9122C13.9358 11.1674 12.7692 10.7061 11.4914 10.65ZM31.4739 10.6443L31.4719 10.8811L31.47 10.6444C30.1065 10.6553 28.8602 11.1268 27.8691 11.9144L27.5351 12.1799L27.7447 12.5516C28.3514 13.6268 28.7015 14.866 28.7015 16.1913V16.1914L28.7017 18.0357L28.7018 18.5356H29.2017H36.9204H37.4204V18.0356V16.6075C37.4204 13.3094 34.8226 10.6702 31.5658 10.6444V10.6443H31.5618C31.5467 10.6443 31.5338 10.6449 31.5244 10.6454L31.5171 10.6458L31.5129 10.6456C31.5053 10.6451 31.4948 10.6446 31.4825 10.6444L31.4756 11.0468L31.474 10.6443H31.4739Z" stroke="103E13"/>
</g>
<defs>
<filter id="filter0_d_211_2094" x="0.673828" y="0.393555" width="41.3936" height="26.798" filterUnits="userSpaceOnUse" color-interpolation-filters="sRGB">
<feFlood flood-opacity="0" result="BackgroundImageFix"/>
<feColorMatrix in="SourceAlpha" type="matrix" values="0 0 0 0 0 0 0 0 0 0 0 0 0 0 0 0 0 0 127 0" result="hardAlpha"/>
<feOffset dy="4"/>
<feGaussianBlur stdDeviation="2"/>
<feComposite in2="hardAlpha" operator="out"/>
<feColorMatrix type="matrix" values="0 0 0 0 0 0 0 0 0 0 0 0 0 0 0 0 0 0 0.25 0"/>
<feBlend mode="normal" in2="BackgroundImageFix" result="effect1_dropShadow_211_2094"/>
<feBlend mode="normal" in="SourceGraphic" in2="effect1_dropShadow_211_2094" result="shape"/>
</filter>
</defs>
</svg>
