<svg width="34" height="22" viewBox="0 0 34 22" fill="none" xmlns="http://www.w3.org/2000/svg">
<path d="M32.1456 21.0625L32.1457 21.0625C32.2769 20.9715 32.3888 20.8553 32.4747 20.7207L32.768 20.908L32.4747 20.7207C32.5607 20.5861 32.619 20.4358 32.6463 20.2784C32.6736 20.121 32.6694 19.9598 32.6339 19.8041L32.9732 19.7267L32.6339 19.8041C32.5983 19.6484 32.5322 19.5013 32.4393 19.3714L32.4378 19.3692C31.1307 17.5113 29.3498 16.0374 27.2801 15.1008L26.7754 14.8724L27.2002 14.5168C28.46 13.4624 29.3642 12.0452 29.7897 10.4584C30.2153 8.87161 30.1414 7.19222 29.5782 5.64889C29.015 4.10557 27.9898 2.77332 26.6423 1.83353C25.2948 0.893734 23.6904 0.392072 22.0475 0.396843L22.0459 0.396848C21.3148 0.39563 20.5871 0.496583 19.8839 0.696775L19.8777 0.698553L19.8776 0.698495C19.7215 0.739827 19.5751 0.811817 19.447 0.910273C19.3189 1.00873 19.2116 1.13169 19.1315 1.27198C19.0514 1.41228 19 1.56711 18.9802 1.72747C18.9605 1.88783 18.9729 2.0505 19.0167 2.20603C19.0604 2.36155 19.1347 2.50682 19.2352 2.63336L18.9625 2.84973L19.2352 2.63337C19.3356 2.75991 19.4602 2.86522 19.6017 2.94314L19.4339 3.24802L19.6017 2.94314C19.7433 3.02107 19.8989 3.07006 20.0595 3.08727C20.2202 3.10448 20.3826 3.08956 20.5375 3.04338L20.5415 3.04219L20.5415 3.04221C21.0311 2.90252 21.5379 2.83213 22.0471 2.83309M32.1456 21.0625L22.0465 3.18112M32.1456 21.0625L32.1416 21.0654C31.9384 21.2106 31.6948 21.2883 31.445 21.2876C31.2497 21.2864 31.0575 21.2388 30.8842 21.1486C30.711 21.0585 30.5617 20.9285 30.4487 20.7693M32.1456 21.0625L30.1644 20.97M22.0471 2.83309L22.0465 3.18112M22.0471 2.83309C22.0469 2.83309 22.0467 2.83309 22.0465 2.83309V3.18112M22.0471 2.83309C23.5238 2.83326 24.9399 3.41993 25.984 4.46408C27.0284 5.50839 27.615 6.92477 27.615 8.40164C27.615 9.87852 27.0284 11.2949 25.984 12.3392C24.9397 13.3835 23.5234 13.9702 22.0465 13.9702C21.7234 13.9702 21.4136 14.0985 21.1851 14.327C20.9567 14.5554 20.8284 14.8653 20.8284 15.1883C20.8284 15.5114 20.9567 15.8212 21.1851 16.0497C21.4136 16.2781 21.7234 16.4064 22.0465 16.4064H22.0469C23.6943 16.4083 25.3172 16.8055 26.7793 17.5647C28.2412 18.3239 29.4996 19.4228 30.4487 20.7693M22.0465 3.18112C23.4311 3.18112 24.7589 3.73114 25.7379 4.71018C26.717 5.68922 27.267 7.01708 27.267 8.40164C27.267 9.78621 26.717 11.1141 25.7379 12.0931C24.7589 13.0721 23.4311 13.6222 22.0465 13.6222C21.6311 13.6222 21.2328 13.7872 20.939 14.0809C20.6453 14.3746 20.4803 14.773 20.4803 15.1883C20.4803 15.6037 20.6453 16.002 20.939 16.2958C21.2328 16.5895 21.6311 16.7545 22.0465 16.7545C23.6382 16.7562 25.2063 17.14 26.6189 17.8736C28.0315 18.6071 29.2474 19.669 30.1644 20.97M30.4487 20.7693C30.4485 20.7691 30.4484 20.7689 30.4483 20.7687L30.1644 20.97M30.4487 20.7693C30.4487 20.7694 30.4488 20.7694 30.4489 20.7695L30.1644 20.97M16.5628 14.5174L16.14 14.873L16.6433 15.1008C18.7129 16.0374 20.4939 17.5113 21.801 19.3692L21.806 19.3763L21.8113 19.3831C21.9128 19.5132 21.9869 19.6626 22.0289 19.8221C22.071 19.9817 22.0802 20.1482 22.056 20.3114C22.0318 20.4746 21.9746 20.6312 21.8881 20.7717C21.8015 20.9122 21.6873 21.0336 21.5523 21.1287C21.4174 21.2237 21.2646 21.2903 21.1031 21.3244C20.9417 21.3585 20.775 21.3595 20.6131 21.3273C20.4513 21.2951 20.2977 21.2303 20.1616 21.1369C20.0256 21.0435 19.9099 20.9234 19.8217 20.784L19.8172 20.7769L19.8124 20.7701C18.8653 19.421 17.6072 18.3199 16.1447 17.5597C14.6821 16.7995 13.058 16.4027 11.4097 16.4027C9.76134 16.4027 8.13725 16.7995 6.67468 17.5597C5.21212 18.3199 3.95408 19.421 3.00692 20.7701L3.00614 20.7712C2.8948 20.9311 2.74634 21.0616 2.5735 21.1515C2.40066 21.2415 2.20858 21.2882 2.01373 21.2876L2.0116 21.2876C1.7617 21.2884 1.51787 21.2107 1.31457 21.0654L1.3129 21.0642C1.04938 20.8782 0.870407 20.5953 0.815221 20.2775C0.760052 19.9598 0.833103 19.6331 1.01835 19.3692C2.32545 17.5113 4.1064 16.0374 6.17602 15.1008L6.67933 14.873L6.25658 14.5174C5.00015 13.4604 4.09913 12.0427 3.67568 10.4563C3.25222 8.87001 3.32681 7.19183 3.88934 5.64931C4.45187 4.1068 5.47512 2.77458 6.82036 1.83325C8.16561 0.89193 9.76779 0.387044 11.4097 0.387044C13.0516 0.387044 14.6537 0.89193 15.999 1.83325C17.3442 2.77458 18.3675 4.1068 18.93 5.64931C19.4925 7.19183 19.5671 8.87001 19.1437 10.4563C18.7202 12.0427 17.8192 13.4604 16.5628 14.5174ZM6.77958 5.30792C6.1677 6.22366 5.84111 7.30029 5.84111 8.40164C5.84111 9.87852 6.4278 11.2949 7.47211 12.3392C8.51641 13.3835 9.9328 13.9702 11.4097 13.9702C12.511 13.9702 13.5876 13.6436 14.5034 13.0317C15.4191 12.4198 16.1329 11.5502 16.5543 10.5326C16.9758 9.51512 17.0861 8.39547 16.8712 7.31527C16.6564 6.23508 16.126 5.24286 15.3472 4.46408C14.5685 3.6853 13.5762 3.15495 12.496 2.94009C11.4158 2.72522 10.2962 2.8355 9.27867 3.25697C8.26115 3.67844 7.39146 4.39218 6.77958 5.30792Z" fill="#4CAF4F" stroke="#4CAF4F" stroke-width="0.696069"/>
</svg>
