<svg width="12" height="13" viewBox="0 0 12 13" fill="none" xmlns="http://www.w3.org/2000/svg">
<path fill-rule="evenodd" clip-rule="evenodd" d="M11.4612 0.766812C11.603 0.908621 11.651 1.11913 11.5847 1.30842L7.93038 11.7495C7.85967 11.9515 7.67279 12.0899 7.45892 12.0986C7.24505 12.1073 7.04752 11.9846 6.96058 11.789L4.95392 7.27404L0.438936 5.26738C0.243333 5.18045 0.120617 4.98292 0.129343 4.76904C0.138068 4.55517 0.276467 4.36829 0.478501 4.29758L10.9195 0.643215C11.1088 0.576964 11.3193 0.625003 11.4612 0.766812ZM5.97211 6.99415L7.3799 10.1617L9.84353 3.12272L5.97211 6.99415ZM9.10524 2.38443L2.06628 4.84806L5.23381 6.25586L9.10524 2.38443Z" fill="white"/>
</svg>
