<svg width="0" height="0" class="hidden">
  <symbol fill="none" xmlns="http://www.w3.org/2000/svg" viewBox="0 0 13 13" id="dribble">
    <path fill-rule="evenodd" clip-rule="evenodd" d="M12.3395 6.76603C12.3395 7.16773 12.2987 7.56887 12.2183 7.95988C12.14 8.34161 12.024 8.71638 11.872 9.07464C11.7235 9.42656 11.5393 9.76569 11.3241 10.082C11.1121 10.3962 10.8679 10.6911 10.5996 10.9598C10.3307 11.2274 10.0349 11.471 9.72076 11.6839C9.40346 11.8976 9.06384 12.0815 8.71171 12.2307C8.35293 12.3819 7.9773 12.4977 7.5959 12.5759C7.20437 12.6565 6.80176 12.6976 6.39949 12.6976C5.99691 12.6976 5.59433 12.6565 5.20335 12.5759C4.82137 12.4977 4.44576 12.3819 4.08726 12.2307C3.73516 12.0815 3.39521 11.8976 3.07791 11.6839C2.76379 11.471 2.46795 11.2274 2.19966 10.9598C1.93108 10.6911 1.68685 10.3962 1.47455 10.082C1.26049 9.76569 1.07601 9.42654 0.926939 9.07464C0.774938 8.71638 0.658646 8.34159 0.580042 7.95988C0.500577 7.56887 0.459961 7.16773 0.459961 6.76603C0.459961 6.36403 0.500554 5.96203 0.580065 5.57188C0.65867 5.19015 0.774961 4.8148 0.926963 4.45712C1.07603 4.10494 1.26052 3.76551 1.47457 3.44922C1.68688 3.1347 1.93111 2.84042 2.19968 2.57136C2.46797 2.30373 2.76382 2.06076 3.07793 1.84817C3.39523 1.63355 3.73518 1.44966 4.08729 1.3002C4.44578 1.14869 4.82137 1.03257 5.20337 0.954961C5.59435 0.87503 5.99693 0.834473 6.39951 0.834473C6.80179 0.834473 7.20437 0.87503 7.59592 0.954961C7.97732 1.03259 8.35293 1.14872 8.71173 1.3002C9.06384 1.44963 9.40348 1.63355 9.72079 1.84817C10.0349 2.06076 10.3308 2.30373 10.5996 2.57136C10.8679 2.84042 11.1121 3.1347 11.3241 3.44922C11.5393 3.76551 11.7235 4.10497 11.872 4.45712C12.024 4.8148 12.14 5.19015 12.2183 5.57188C12.2987 5.96203 12.3395 6.36403 12.3395 6.76603ZM4.23515 2.18442C2.82059 2.85144 1.76484 4.15301 1.43563 5.72163C1.56936 5.72279 3.6832 5.74944 6.11869 5.10326C5.24074 3.54565 4.30274 2.27451 4.23515 2.18442ZM6.53896 5.88326C3.92713 6.66406 1.42084 6.60788 1.33094 6.60442C1.32947 6.65886 1.32687 6.71156 1.32687 6.76603C1.32687 8.06729 1.81849 9.2536 2.62656 10.1506C2.62481 10.148 4.01298 7.68877 6.75041 6.80484C6.81653 6.78283 6.88383 6.76312 6.95053 6.74402C6.82322 6.45615 6.68426 6.16767 6.53896 5.88326ZM9.74948 2.96439C8.85642 2.17804 7.68379 1.70105 6.39947 1.70105C5.98731 1.70105 5.58734 1.75087 5.20419 1.84297C5.28017 1.94493 6.23298 3.20711 7.10049 4.79771C9.01451 4.08119 9.737 2.98291 9.74948 2.96439ZM7.29631 7.58335C7.28501 7.58709 7.27371 7.59031 7.26267 7.59435C4.26975 8.63622 3.29238 10.7359 3.2818 10.7588C4.14296 11.4275 5.22308 11.831 6.3995 11.831C7.10197 11.831 7.7711 11.6882 8.3799 11.4296C8.30478 10.987 8.0101 9.4358 7.29631 7.58335ZM9.23407 10.9668C10.3731 10.1993 11.182 8.98052 11.4076 7.56884C11.3032 7.53525 9.88404 7.08661 8.24673 7.34874C8.9121 9.17456 9.18243 10.6615 9.23407 10.9668ZM7.49094 5.55249C7.60867 5.79404 7.72268 6.03989 7.82795 6.28697C7.86538 6.37561 7.90193 6.46251 7.9376 6.54938C9.68017 6.33041 11.3969 6.69882 11.4703 6.71386C11.4587 5.51309 11.0286 4.41105 10.3168 3.54828C10.3073 3.56186 9.49369 4.73572 7.49094 5.55249Z" fill="black"></path>
  </symbol>
  <symbol fill="none" xmlns="http://www.w3.org/2000/svg" viewBox="0 0 12 13" id="instagram">
    <path fill-rule="evenodd" clip-rule="evenodd" d="M5.98918 0.834473C4.37601 0.834473 4.17356 0.841526 3.53998 0.870359C2.90763 0.899316 2.476 0.999427 2.09833 1.14632C1.70766 1.29803 1.37626 1.50097 1.04611 1.83125C0.715701 2.16141 0.512756 2.49281 0.360547 2.88335C0.213288 3.26115 0.113053 3.6929 0.084591 4.325C0.0562529 4.95859 0.0488281 5.16116 0.0488281 6.77433C0.0488281 8.38749 0.0560055 8.58932 0.0847147 9.22291C0.113795 9.85525 0.213907 10.2869 0.360671 10.6646C0.512508 11.0552 0.715453 11.3866 1.04573 11.7168C1.37577 12.0472 1.70716 12.2506 2.09758 12.4023C2.47551 12.5492 2.90726 12.6493 3.53948 12.6783C4.17307 12.7071 4.37539 12.7142 5.98844 12.7142C7.60173 12.7142 7.80356 12.7071 8.43714 12.6783C9.06949 12.6493 9.50161 12.5492 9.87954 12.4023C10.2701 12.2506 10.601 12.0472 10.931 11.7168C11.2614 11.3866 11.4644 11.0552 11.6166 10.6647C11.7626 10.2869 11.8628 9.85513 11.8925 9.22303C11.921 8.58945 11.9284 8.38749 11.9284 6.77433C11.9284 5.16116 11.921 4.95871 11.8925 4.32513C11.8628 3.69278 11.7626 3.26115 11.6166 2.88348C11.4644 2.49281 11.2614 2.16141 10.931 1.83125C10.6006 1.50085 10.2702 1.29791 9.87916 1.14632C9.5005 0.999427 9.06862 0.899316 8.43627 0.870359C7.80269 0.841526 7.60098 0.834473 5.98732 0.834473H5.98918ZM5.4563 1.90487C5.61445 1.90462 5.79091 1.90487 5.98915 1.90487C7.57509 1.90487 7.76307 1.91056 8.38935 1.93902C8.96848 1.9655 9.2828 2.06227 9.49218 2.14358C9.76937 2.25124 9.967 2.37993 10.1748 2.58783C10.3827 2.79572 10.5114 2.99372 10.6193 3.27091C10.7006 3.48004 10.7975 3.79436 10.8238 4.3735C10.8523 4.99966 10.8585 5.18775 10.8585 6.77295C10.8585 8.35815 10.8523 8.54624 10.8238 9.1724C10.7973 9.75154 10.7006 10.0659 10.6193 10.275C10.5116 10.5522 10.3827 10.7496 10.1748 10.9573C9.96687 11.1652 9.7695 11.2939 9.49218 11.4016C9.28305 11.4833 8.96848 11.5798 8.38935 11.6063C7.76319 11.6347 7.57509 11.6409 5.98915 11.6409C4.40309 11.6409 4.21512 11.6347 3.58896 11.6063C3.00982 11.5795 2.6955 11.4828 2.486 11.4015C2.20881 11.2938 2.01081 11.1651 1.80292 10.9572C1.59502 10.7493 1.46632 10.5518 1.35842 10.2745C1.27712 10.0654 1.18022 9.75104 1.15386 9.17191C1.1254 8.54575 1.11971 8.35765 1.11971 6.77146C1.11971 5.18528 1.1254 4.99817 1.15386 4.37201C1.18035 3.79287 1.27712 3.47856 1.35842 3.26918C1.46608 2.99198 1.59502 2.79399 1.80292 2.58609C2.01081 2.3782 2.20881 2.2495 2.486 2.1416C2.69538 2.05992 3.00982 1.9634 3.58896 1.93679C4.13691 1.91204 4.34926 1.90462 5.4563 1.90338V1.90487ZM9.1598 2.89113C8.76629 2.89113 8.44702 3.21003 8.44702 3.60367C8.44702 3.99718 8.76629 4.31645 9.1598 4.31645C9.55332 4.31645 9.87258 3.99718 9.87258 3.60367C9.87258 3.21015 9.55332 2.89113 9.1598 2.89113ZM5.98919 3.72395C4.30462 3.72395 2.93882 5.08974 2.93882 6.77431C2.93882 8.45888 4.30462 9.82405 5.98919 9.82405C7.67376 9.82405 9.03906 8.45888 9.03906 6.77431C9.03906 5.08974 7.67376 3.72395 5.98919 3.72395ZM5.98916 4.79436C7.08259 4.79436 7.96912 5.68076 7.96912 6.77431C7.96912 7.86774 7.08259 8.75426 5.98916 8.75426C4.89561 8.75426 4.00921 7.86774 4.00921 6.77431C4.00921 5.68076 4.89561 4.79436 5.98916 4.79436Z" fill="black"></path>
  </symbol>
  <symbol fill="none" xmlns="http://www.w3.org/2000/svg" viewBox="0 0 12 10" id="twitter">
    <path fill-rule="evenodd" clip-rule="evenodd" d="M5.47816 2.68957L5.50153 3.07494L5.11203 3.02776C3.69421 2.84687 2.45557 2.23342 1.4039 1.20315L0.889749 0.691947L0.757316 1.06945C0.476869 1.91097 0.656044 2.79968 1.24031 3.3974C1.55191 3.72771 1.4818 3.7749 0.94428 3.57828C0.757316 3.51537 0.593722 3.46818 0.578142 3.49177C0.523611 3.54682 0.710575 4.26251 0.858588 4.54564C1.06113 4.93887 1.47401 5.32424 1.92584 5.55232L2.30756 5.73321L1.85573 5.74107C1.41948 5.74107 1.4039 5.74893 1.45064 5.91409C1.60645 6.4253 2.22187 6.96796 2.90741 7.2039L3.3904 7.36906L2.96973 7.62073C2.34651 7.9825 1.61424 8.18698 0.881959 8.20271C0.531401 8.21058 0.243164 8.24204 0.243164 8.26563C0.243164 8.34428 1.19357 8.7847 1.74667 8.95772C3.40598 9.46893 5.37689 9.24872 6.85703 8.37574C7.9087 7.75443 8.96037 6.51967 9.45116 5.32424C9.71602 4.6872 9.98089 3.52323 9.98089 2.96484C9.98089 2.60306 10.0043 2.55588 10.4405 2.12332C10.6976 1.87165 10.9391 1.59638 10.9858 1.51774C11.0637 1.36831 11.0559 1.36831 10.6586 1.50201C9.99647 1.73795 9.90299 1.70649 10.2302 1.35258C10.4717 1.10091 10.7599 0.644759 10.7599 0.511059C10.7599 0.487465 10.6431 0.526789 10.5106 0.597571C10.3704 0.676217 10.0588 0.794188 9.82508 0.86497L9.40441 0.998669L9.0227 0.739135C8.81236 0.597571 8.51633 0.440277 8.36053 0.393089C7.96323 0.282984 7.3556 0.298713 6.99725 0.424548C6.02348 0.778458 5.40805 1.69076 5.47816 2.68957Z" fill="black"></path>
  </symbol>
  <symbol fill="none" xmlns="http://www.w3.org/2000/svg" viewBox="0 0 13 10" id="youtube">
    <path fill-rule="evenodd" clip-rule="evenodd" d="M10.8642 0.945588C11.3754 1.08585 11.7779 1.49914 11.9145 2.02398C12.1628 2.97519 12.1628 4.9599 12.1628 4.9599C12.1628 4.9599 12.1628 6.94454 11.9145 7.89582C11.7779 8.42066 11.3754 8.83395 10.8642 8.97428C9.93786 9.22913 6.223 9.22913 6.223 9.22913C6.223 9.22913 2.50813 9.22913 1.58172 8.97428C1.07056 8.83395 0.668007 8.42066 0.531392 7.89582C0.283203 6.94454 0.283203 4.9599 0.283203 4.9599C0.283203 4.9599 0.283203 2.97519 0.531392 2.02398C0.668007 1.49914 1.07056 1.08585 1.58172 0.945588C2.50813 0.690674 6.223 0.690674 6.223 0.690674C6.223 0.690674 9.93786 0.690674 10.8642 0.945588ZM5.1093 3.28929V7.00166L8.07919 5.14555L5.1093 3.28929Z" fill="black"></path>
  </symbol>
</svg>