<svg width="12" height="10" viewBox="0 0 12 10" fill="none" xmlns="http://www.w3.org/2000/svg">
<path fill-rule="evenodd" clip-rule="evenodd" d="M5.47816 2.68957L5.50153 3.07494L5.11203 3.02776C3.69421 2.84687 2.45557 2.23342 1.4039 1.20315L0.889749 0.691947L0.757316 1.06945C0.476869 1.91097 0.656044 2.79968 1.24031 3.3974C1.55191 3.72771 1.4818 3.7749 0.94428 3.57828C0.757316 3.51537 0.593722 3.46818 0.578142 3.49177C0.523611 3.54682 0.710575 4.26251 0.858588 4.54564C1.06113 4.93887 1.47401 5.32424 1.92584 5.55232L2.30756 5.73321L1.85573 5.74107C1.41948 5.74107 1.4039 5.74893 1.45064 5.91409C1.60645 6.4253 2.22187 6.96796 2.90741 7.2039L3.3904 7.36906L2.96973 7.62073C2.34651 7.9825 1.61424 8.18698 0.881959 8.20271C0.531401 8.21058 0.243164 8.24204 0.243164 8.26563C0.243164 8.34428 1.19357 8.7847 1.74667 8.95772C3.40598 9.46893 5.37689 9.24872 6.85703 8.37574C7.9087 7.75443 8.96037 6.51967 9.45116 5.32424C9.71602 4.6872 9.98089 3.52323 9.98089 2.96484C9.98089 2.60306 10.0043 2.55588 10.4405 2.12332C10.6976 1.87165 10.9391 1.59638 10.9858 1.51774C11.0637 1.36831 11.0559 1.36831 10.6586 1.50201C9.99647 1.73795 9.90299 1.70649 10.2302 1.35258C10.4717 1.10091 10.7599 0.644759 10.7599 0.511059C10.7599 0.487465 10.6431 0.526789 10.5106 0.597571C10.3704 0.676217 10.0588 0.794188 9.82508 0.86497L9.40441 0.998669L9.0227 0.739135C8.81236 0.597571 8.51633 0.440277 8.36053 0.393089C7.96323 0.282984 7.3556 0.298713 6.99725 0.424548C6.02348 0.778458 5.40805 1.69076 5.47816 2.68957Z" fill="white"/>
</svg>
