<svg width="13" height="10" viewBox="0 0 13 10" fill="none" xmlns="http://www.w3.org/2000/svg">
<path fill-rule="evenodd" clip-rule="evenodd" d="M10.8642 0.945588C11.3754 1.08585 11.7779 1.49914 11.9145 2.02398C12.1628 2.97519 12.1628 4.9599 12.1628 4.9599C12.1628 4.9599 12.1628 6.94454 11.9145 7.89582C11.7779 8.42066 11.3754 8.83395 10.8642 8.97428C9.93786 9.22913 6.223 9.22913 6.223 9.22913C6.223 9.22913 2.50813 9.22913 1.58172 8.97428C1.07056 8.83395 0.668007 8.42066 0.531392 7.89582C0.283203 6.94454 0.283203 4.9599 0.283203 4.9599C0.283203 4.9599 0.283203 2.97519 0.531392 2.02398C0.668007 1.49914 1.07056 1.08585 1.58172 0.945588C2.50813 0.690674 6.223 0.690674 6.223 0.690674C6.223 0.690674 9.93786 0.690674 10.8642 0.945588ZM5.1093 3.28929V7.00166L8.07919 5.14555L5.1093 3.28929Z" fill="white"/>
</svg>
